<mxfile host="app.diagrams.net" agent="Mozilla/5.0 (Windows NT 10.0; Win64; x64) AppleWebKit/537.36 (KHTML, like Gecko) Chrome/133.0.0.0 Safari/537.36 Edg/133.0.0.0" version="26.0.14">
  <diagram name="Page-1" id="039mq2rBfye_ZRTkvB9V">
    <mxGraphModel dx="1479" dy="1437" grid="1" gridSize="10" guides="1" tooltips="1" connect="1" arrows="1" fold="1" page="1" pageScale="1" pageWidth="850" pageHeight="1100" math="0" shadow="0">
      <root>
        <mxCell id="0" />
        <mxCell id="1" parent="0" />
        <mxCell id="gvMt2YW-roEtXW47RTCH-63" value="Users" style="whiteSpace=wrap;html=1;align=center;fillColor=light-dark(#87CEEB,var(--ge-dark-color, #121212));" parent="1" vertex="1">
          <mxGeometry x="-50" y="-20" width="100" height="40" as="geometry" />
        </mxCell>
        <mxCell id="gvMt2YW-roEtXW47RTCH-64" value="user_id" style="ellipse;whiteSpace=wrap;html=1;align=center;fontStyle=4;fillColor=light-dark(#87CEEB,var(--ge-dark-color, #121212));" parent="1" vertex="1">
          <mxGeometry x="-50" y="40" width="100" height="40" as="geometry" />
        </mxCell>
        <mxCell id="gvMt2YW-roEtXW47RTCH-65" value="" style="endArrow=none;html=1;rounded=0;" parent="1" source="gvMt2YW-roEtXW47RTCH-63" target="gvMt2YW-roEtXW47RTCH-64" edge="1">
          <mxGeometry relative="1" as="geometry">
            <mxPoint x="-80" y="70" as="sourcePoint" />
            <mxPoint x="-10" y="90" as="targetPoint" />
          </mxGeometry>
        </mxCell>
        <mxCell id="gvMt2YW-roEtXW47RTCH-66" value="username" style="ellipse;whiteSpace=wrap;html=1;align=center;fillColor=light-dark(#87CEEB,var(--ge-dark-color, #121212));" parent="1" vertex="1">
          <mxGeometry x="80" y="-20" width="100" height="40" as="geometry" />
        </mxCell>
        <mxCell id="gvMt2YW-roEtXW47RTCH-67" value="" style="endArrow=none;html=1;rounded=0;" parent="1" source="gvMt2YW-roEtXW47RTCH-63" target="gvMt2YW-roEtXW47RTCH-66" edge="1">
          <mxGeometry relative="1" as="geometry">
            <mxPoint x="-80" y="70" as="sourcePoint" />
            <mxPoint x="80" y="70" as="targetPoint" />
          </mxGeometry>
        </mxCell>
        <mxCell id="gvMt2YW-roEtXW47RTCH-69" value="email" style="ellipse;whiteSpace=wrap;html=1;align=center;fillColor=light-dark(#87CEEB,var(--ge-dark-color, #121212));" parent="1" vertex="1">
          <mxGeometry x="-180" y="-20" width="100" height="40" as="geometry" />
        </mxCell>
        <mxCell id="gvMt2YW-roEtXW47RTCH-70" value="" style="endArrow=none;html=1;rounded=0;" parent="1" source="gvMt2YW-roEtXW47RTCH-69" target="gvMt2YW-roEtXW47RTCH-63" edge="1">
          <mxGeometry relative="1" as="geometry">
            <mxPoint x="-80" y="-10" as="sourcePoint" />
            <mxPoint x="-80" y="-90" as="targetPoint" />
          </mxGeometry>
        </mxCell>
        <mxCell id="gvMt2YW-roEtXW47RTCH-72" value="user_type" style="ellipse;whiteSpace=wrap;html=1;align=center;fillColor=light-dark(#87CEEB,var(--ge-dark-color, #121212));" parent="1" vertex="1">
          <mxGeometry x="-50" y="-80" width="100" height="40" as="geometry" />
        </mxCell>
        <mxCell id="gvMt2YW-roEtXW47RTCH-75" value="" style="endArrow=none;html=1;rounded=0;" parent="1" source="gvMt2YW-roEtXW47RTCH-72" target="gvMt2YW-roEtXW47RTCH-63" edge="1">
          <mxGeometry relative="1" as="geometry">
            <mxPoint x="-30" y="10" as="sourcePoint" />
            <mxPoint x="130" y="10" as="targetPoint" />
          </mxGeometry>
        </mxCell>
        <mxCell id="gvMt2YW-roEtXW47RTCH-76" value="password_hash" style="ellipse;whiteSpace=wrap;html=1;align=center;fillColor=light-dark(#87CEEB,var(--ge-dark-color, #121212));" parent="1" vertex="1">
          <mxGeometry x="-180" y="-80" width="100" height="40" as="geometry" />
        </mxCell>
        <mxCell id="gvMt2YW-roEtXW47RTCH-77" value="" style="endArrow=none;html=1;rounded=0;entryX=0;entryY=0;entryDx=0;entryDy=0;" parent="1" source="gvMt2YW-roEtXW47RTCH-76" target="gvMt2YW-roEtXW47RTCH-63" edge="1">
          <mxGeometry relative="1" as="geometry">
            <mxPoint x="-70" y="10" as="sourcePoint" />
            <mxPoint x="90" y="10" as="targetPoint" />
          </mxGeometry>
        </mxCell>
        <mxCell id="gvMt2YW-roEtXW47RTCH-78" value="created_at" style="ellipse;whiteSpace=wrap;html=1;align=center;fillColor=light-dark(#87CEEB,var(--ge-dark-color, #121212));" parent="1" vertex="1">
          <mxGeometry x="80" y="-80" width="100" height="40" as="geometry" />
        </mxCell>
        <mxCell id="gvMt2YW-roEtXW47RTCH-79" value="" style="endArrow=none;html=1;rounded=0;exitX=1;exitY=0;exitDx=0;exitDy=0;" parent="1" source="gvMt2YW-roEtXW47RTCH-63" target="gvMt2YW-roEtXW47RTCH-78" edge="1">
          <mxGeometry relative="1" as="geometry">
            <mxPoint x="-70" y="10" as="sourcePoint" />
            <mxPoint x="90" y="10" as="targetPoint" />
          </mxGeometry>
        </mxCell>
        <mxCell id="gvMt2YW-roEtXW47RTCH-80" value="Freelancers" style="whiteSpace=wrap;html=1;align=center;fillColor=light-dark(#FFD700,var(--ge-dark-color, #121212));" parent="1" vertex="1">
          <mxGeometry x="430" y="100" width="100" height="40" as="geometry" />
        </mxCell>
        <mxCell id="t3rTMX0xg2tJ1wJNU89R-1" value="hourly_rate" style="ellipse;whiteSpace=wrap;html=1;align=center;fontStyle=0;fillColor=light-dark(#FFD700,var(--ge-dark-color, #121212));" parent="1" vertex="1">
          <mxGeometry x="430" y="160" width="100" height="40" as="geometry" />
        </mxCell>
        <mxCell id="t3rTMX0xg2tJ1wJNU89R-2" value="freelancer_id" style="ellipse;whiteSpace=wrap;html=1;align=center;fontStyle=4;fillColor=light-dark(#87CEEB,var(--ge-dark-color, #121212));" parent="1" vertex="1">
          <mxGeometry x="560" y="100" width="100" height="40" as="geometry" />
        </mxCell>
        <mxCell id="t3rTMX0xg2tJ1wJNU89R-3" value="bio" style="ellipse;whiteSpace=wrap;html=1;align=center;fillColor=light-dark(#FFD700,var(--ge-dark-color, #121212));" parent="1" vertex="1">
          <mxGeometry x="300" y="100" width="100" height="40" as="geometry" />
        </mxCell>
        <mxCell id="t3rTMX0xg2tJ1wJNU89R-6" value="" style="endArrow=none;html=1;rounded=0;" parent="1" source="t3rTMX0xg2tJ1wJNU89R-3" target="gvMt2YW-roEtXW47RTCH-80" edge="1">
          <mxGeometry relative="1" as="geometry">
            <mxPoint x="140" y="90" as="sourcePoint" />
            <mxPoint x="300" y="90" as="targetPoint" />
          </mxGeometry>
        </mxCell>
        <mxCell id="t3rTMX0xg2tJ1wJNU89R-7" value="" style="endArrow=none;html=1;rounded=0;" parent="1" source="gvMt2YW-roEtXW47RTCH-80" target="t3rTMX0xg2tJ1wJNU89R-1" edge="1">
          <mxGeometry relative="1" as="geometry">
            <mxPoint x="140" y="90" as="sourcePoint" />
            <mxPoint x="300" y="90" as="targetPoint" />
          </mxGeometry>
        </mxCell>
        <mxCell id="t3rTMX0xg2tJ1wJNU89R-9" value="" style="endArrow=none;html=1;rounded=0;" parent="1" source="gvMt2YW-roEtXW47RTCH-80" target="t3rTMX0xg2tJ1wJNU89R-2" edge="1">
          <mxGeometry relative="1" as="geometry">
            <mxPoint x="140" y="90" as="sourcePoint" />
            <mxPoint x="300" y="90" as="targetPoint" />
          </mxGeometry>
        </mxCell>
        <mxCell id="t3rTMX0xg2tJ1wJNU89R-11" value="Clients" style="whiteSpace=wrap;html=1;align=center;fillColor=light-dark(#F08080,var(--ge-dark-color, #121212));" parent="1" vertex="1">
          <mxGeometry x="-530" y="100" width="100" height="40" as="geometry" />
        </mxCell>
        <mxCell id="t3rTMX0xg2tJ1wJNU89R-12" value="client_id" style="ellipse;whiteSpace=wrap;html=1;align=center;fontStyle=4;fillColor=light-dark(#F08080,var(--ge-dark-color, #121212));" parent="1" vertex="1">
          <mxGeometry x="-530" y="40" width="100" height="40" as="geometry" />
        </mxCell>
        <mxCell id="t3rTMX0xg2tJ1wJNU89R-13" value="business_type" style="ellipse;whiteSpace=wrap;html=1;align=center;fillColor=light-dark(#F08080,var(--ge-dark-color, #121212));" parent="1" vertex="1">
          <mxGeometry x="-400" y="100" width="100" height="40" as="geometry" />
        </mxCell>
        <mxCell id="t3rTMX0xg2tJ1wJNU89R-14" value="company_name" style="ellipse;whiteSpace=wrap;html=1;align=center;fillColor=light-dark(#F08080,var(--ge-dark-color, #121212));" parent="1" vertex="1">
          <mxGeometry x="-660" y="100" width="100" height="40" as="geometry" />
        </mxCell>
        <mxCell id="t3rTMX0xg2tJ1wJNU89R-17" value="" style="endArrow=none;html=1;rounded=0;" parent="1" source="t3rTMX0xg2tJ1wJNU89R-14" target="t3rTMX0xg2tJ1wJNU89R-11" edge="1">
          <mxGeometry relative="1" as="geometry">
            <mxPoint x="-820" y="90" as="sourcePoint" />
            <mxPoint x="-660" y="90" as="targetPoint" />
          </mxGeometry>
        </mxCell>
        <mxCell id="t3rTMX0xg2tJ1wJNU89R-18" value="" style="endArrow=none;html=1;rounded=0;" parent="1" source="t3rTMX0xg2tJ1wJNU89R-11" target="t3rTMX0xg2tJ1wJNU89R-12" edge="1">
          <mxGeometry relative="1" as="geometry">
            <mxPoint x="-820" y="90" as="sourcePoint" />
            <mxPoint x="-660" y="90" as="targetPoint" />
          </mxGeometry>
        </mxCell>
        <mxCell id="t3rTMX0xg2tJ1wJNU89R-19" value="" style="endArrow=none;html=1;rounded=0;" parent="1" source="t3rTMX0xg2tJ1wJNU89R-11" target="t3rTMX0xg2tJ1wJNU89R-13" edge="1">
          <mxGeometry relative="1" as="geometry">
            <mxPoint x="-820" y="90" as="sourcePoint" />
            <mxPoint x="-660" y="90" as="targetPoint" />
          </mxGeometry>
        </mxCell>
        <mxCell id="t3rTMX0xg2tJ1wJNU89R-21" value="Reviews" style="whiteSpace=wrap;html=1;align=center;fillColor=light-dark(#98FB98,var(--ge-dark-color, #121212));" parent="1" vertex="1">
          <mxGeometry x="-50" y="340" width="100" height="40" as="geometry" />
        </mxCell>
        <mxCell id="t3rTMX0xg2tJ1wJNU89R-22" value="Is a" style="shape=rhombus;perimeter=rhombusPerimeter;whiteSpace=wrap;html=1;align=center;fillColor=light-dark(#FFFFF0,var(--ge-dark-color, #121212));" parent="1" vertex="1">
          <mxGeometry x="320" y="40" width="80" height="40" as="geometry" />
        </mxCell>
        <mxCell id="t3rTMX0xg2tJ1wJNU89R-24" value="Is a" style="shape=rhombus;perimeter=rhombusPerimeter;whiteSpace=wrap;html=1;align=center;fillColor=light-dark(#FFFFF0,var(--ge-dark-color, #121212));" parent="1" vertex="1">
          <mxGeometry x="-360" y="40" width="80" height="40" as="geometry" />
        </mxCell>
        <mxCell id="t3rTMX0xg2tJ1wJNU89R-27" value="freelancer_id" style="ellipse;whiteSpace=wrap;html=1;align=center;fontStyle=4;fillColor=light-dark(#87CEEB,var(--ge-dark-color, #121212));" parent="1" vertex="1">
          <mxGeometry x="560" y="-80" width="100" height="40" as="geometry" />
        </mxCell>
        <mxCell id="t3rTMX0xg2tJ1wJNU89R-28" value="skill_id" style="ellipse;whiteSpace=wrap;html=1;align=center;fontStyle=4;fillColor=light-dark(#B0E0E6,var(--ge-dark-color, #121212));" parent="1" vertex="1">
          <mxGeometry x="560" y="-200" width="100" height="40" as="geometry" />
        </mxCell>
        <mxCell id="t3rTMX0xg2tJ1wJNU89R-29" value="Freelancer_Skills" style="shape=associativeEntity;whiteSpace=wrap;html=1;align=center;fillColor=light-dark(#D3D3D3,var(--ge-dark-color, #121212));" parent="1" vertex="1">
          <mxGeometry x="545" y="-145" width="130" height="50" as="geometry" />
        </mxCell>
        <mxCell id="t3rTMX0xg2tJ1wJNU89R-32" value="" style="endArrow=none;html=1;rounded=0;" parent="1" source="t3rTMX0xg2tJ1wJNU89R-29" target="t3rTMX0xg2tJ1wJNU89R-27" edge="1">
          <mxGeometry relative="1" as="geometry">
            <mxPoint x="460" y="-190" as="sourcePoint" />
            <mxPoint x="620" y="-190" as="targetPoint" />
          </mxGeometry>
        </mxCell>
        <mxCell id="t3rTMX0xg2tJ1wJNU89R-33" value="" style="endArrow=none;html=1;rounded=0;" parent="1" source="t3rTMX0xg2tJ1wJNU89R-28" target="t3rTMX0xg2tJ1wJNU89R-29" edge="1">
          <mxGeometry relative="1" as="geometry">
            <mxPoint x="460" y="-190" as="sourcePoint" />
            <mxPoint x="620" y="-190" as="targetPoint" />
          </mxGeometry>
        </mxCell>
        <mxCell id="t3rTMX0xg2tJ1wJNU89R-43" value="Skills" style="whiteSpace=wrap;html=1;align=center;fillColor=light-dark(#B0E0E6,var(--ge-dark-color, #121212));" parent="1" vertex="1">
          <mxGeometry x="320" y="-140" width="100" height="40" as="geometry" />
        </mxCell>
        <mxCell id="t3rTMX0xg2tJ1wJNU89R-54" value="Possesses" style="shape=rhombus;perimeter=rhombusPerimeter;whiteSpace=wrap;html=1;align=center;fillColor=light-dark(#FFFFF0,var(--ge-dark-color, #121212));" parent="1" vertex="1">
          <mxGeometry x="572.5" y="10" width="75" height="40" as="geometry" />
        </mxCell>
        <mxCell id="t3rTMX0xg2tJ1wJNU89R-58" value="skill_id" style="ellipse;whiteSpace=wrap;html=1;align=center;fontStyle=4;fillColor=light-dark(#B0E0E6,var(--ge-dark-color, #121212));" parent="1" vertex="1">
          <mxGeometry x="320" y="-200" width="100" height="40" as="geometry" />
        </mxCell>
        <mxCell id="t3rTMX0xg2tJ1wJNU89R-59" value="skill_name" style="ellipse;whiteSpace=wrap;html=1;align=center;fillColor=light-dark(#B0E0E6,var(--ge-dark-color, #121212));" parent="1" vertex="1">
          <mxGeometry x="320" y="-80" width="100" height="40" as="geometry" />
        </mxCell>
        <mxCell id="t3rTMX0xg2tJ1wJNU89R-60" value="" style="endArrow=none;html=1;rounded=0;" parent="1" source="t3rTMX0xg2tJ1wJNU89R-59" target="t3rTMX0xg2tJ1wJNU89R-43" edge="1">
          <mxGeometry relative="1" as="geometry">
            <mxPoint x="430" y="-50" as="sourcePoint" />
            <mxPoint x="590" y="-50" as="targetPoint" />
          </mxGeometry>
        </mxCell>
        <mxCell id="t3rTMX0xg2tJ1wJNU89R-61" value="" style="endArrow=none;html=1;rounded=0;" parent="1" source="t3rTMX0xg2tJ1wJNU89R-43" target="t3rTMX0xg2tJ1wJNU89R-58" edge="1">
          <mxGeometry relative="1" as="geometry">
            <mxPoint x="430" y="-50" as="sourcePoint" />
            <mxPoint x="590" y="-50" as="targetPoint" />
          </mxGeometry>
        </mxCell>
        <mxCell id="t3rTMX0xg2tJ1wJNU89R-63" value="Belongs to" style="shape=rhombus;perimeter=rhombusPerimeter;whiteSpace=wrap;html=1;align=center;fillColor=light-dark(#FFFFF0,var(--ge-dark-color, #121212));" parent="1" vertex="1">
          <mxGeometry x="460" y="-200" width="70" height="40" as="geometry" />
        </mxCell>
        <mxCell id="t3rTMX0xg2tJ1wJNU89R-66" value="reviewer_id" style="ellipse;whiteSpace=wrap;html=1;align=center;fillColor=light-dark(#87CEEB,var(--ge-dark-color, #121212));" parent="1" vertex="1">
          <mxGeometry x="-180" y="280" width="100" height="40" as="geometry" />
        </mxCell>
        <mxCell id="t3rTMX0xg2tJ1wJNU89R-67" value="reviewee_id" style="ellipse;whiteSpace=wrap;html=1;align=center;fillColor=light-dark(#87CEEB,var(--ge-dark-color, #121212));" parent="1" vertex="1">
          <mxGeometry x="80" y="280" width="100" height="40" as="geometry" />
        </mxCell>
        <mxCell id="t3rTMX0xg2tJ1wJNU89R-68" value="" style="endArrow=none;html=1;rounded=0;entryX=0;entryY=0;entryDx=0;entryDy=0;" parent="1" source="t3rTMX0xg2tJ1wJNU89R-66" target="t3rTMX0xg2tJ1wJNU89R-21" edge="1">
          <mxGeometry relative="1" as="geometry">
            <mxPoint x="-20" y="200" as="sourcePoint" />
            <mxPoint x="140" y="200" as="targetPoint" />
          </mxGeometry>
        </mxCell>
        <mxCell id="t3rTMX0xg2tJ1wJNU89R-69" value="" style="endArrow=none;html=1;rounded=0;exitX=1;exitY=0;exitDx=0;exitDy=0;" parent="1" source="t3rTMX0xg2tJ1wJNU89R-21" target="t3rTMX0xg2tJ1wJNU89R-67" edge="1">
          <mxGeometry relative="1" as="geometry">
            <mxPoint x="-20" y="200" as="sourcePoint" />
            <mxPoint x="140" y="200" as="targetPoint" />
          </mxGeometry>
        </mxCell>
        <mxCell id="t3rTMX0xg2tJ1wJNU89R-70" value="review_id" style="ellipse;whiteSpace=wrap;html=1;align=center;fontStyle=4;fillColor=light-dark(#98FB98,var(--ge-dark-color, #121212));" parent="1" vertex="1">
          <mxGeometry x="-50" y="400" width="100" height="40" as="geometry" />
        </mxCell>
        <mxCell id="t3rTMX0xg2tJ1wJNU89R-71" value="rating" style="ellipse;whiteSpace=wrap;html=1;align=center;fillColor=light-dark(#98FB98,var(--ge-dark-color, #121212));" parent="1" vertex="1">
          <mxGeometry x="-180" y="340" width="100" height="40" as="geometry" />
        </mxCell>
        <mxCell id="t3rTMX0xg2tJ1wJNU89R-72" value="review_text" style="ellipse;whiteSpace=wrap;html=1;align=center;fillColor=light-dark(#98FB98,var(--ge-dark-color, #121212));" parent="1" vertex="1">
          <mxGeometry x="80" y="340" width="100" height="40" as="geometry" />
        </mxCell>
        <mxCell id="t3rTMX0xg2tJ1wJNU89R-73" value="review_date" style="ellipse;whiteSpace=wrap;html=1;align=center;fillColor=light-dark(#98FB98,var(--ge-dark-color, #121212));" parent="1" vertex="1">
          <mxGeometry x="80" y="400" width="100" height="40" as="geometry" />
        </mxCell>
        <mxCell id="t3rTMX0xg2tJ1wJNU89R-74" value="project_id" style="ellipse;whiteSpace=wrap;html=1;align=center;fillColor=light-dark(#AFEEEE,var(--ge-dark-color, #121212));" parent="1" vertex="1">
          <mxGeometry x="-180" y="400" width="100" height="40" as="geometry" />
        </mxCell>
        <mxCell id="t3rTMX0xg2tJ1wJNU89R-82" value="Receives" style="shape=rhombus;perimeter=rhombusPerimeter;whiteSpace=wrap;html=1;align=center;fillColor=light-dark(#FFFFF0,var(--ge-dark-color, #121212));" parent="1" vertex="1">
          <mxGeometry x="90" y="160" width="80" height="40" as="geometry" />
        </mxCell>
        <mxCell id="t3rTMX0xg2tJ1wJNU89R-98" value="Writes" style="shape=rhombus;perimeter=rhombusPerimeter;whiteSpace=wrap;html=1;align=center;fillColor=light-dark(#FFFFF0,var(--ge-dark-color, #121212));" parent="1" vertex="1">
          <mxGeometry x="-170" y="160" width="80" height="40" as="geometry" />
        </mxCell>
        <mxCell id="t3rTMX0xg2tJ1wJNU89R-100" value="" style="endArrow=none;html=1;rounded=0;" parent="1" source="t3rTMX0xg2tJ1wJNU89R-71" target="t3rTMX0xg2tJ1wJNU89R-21" edge="1">
          <mxGeometry relative="1" as="geometry">
            <mxPoint x="-330" y="340" as="sourcePoint" />
            <mxPoint x="-170" y="340" as="targetPoint" />
          </mxGeometry>
        </mxCell>
        <mxCell id="t3rTMX0xg2tJ1wJNU89R-101" value="" style="endArrow=none;html=1;rounded=0;" parent="1" source="t3rTMX0xg2tJ1wJNU89R-74" target="t3rTMX0xg2tJ1wJNU89R-21" edge="1">
          <mxGeometry relative="1" as="geometry">
            <mxPoint x="-330" y="340" as="sourcePoint" />
            <mxPoint x="-170" y="340" as="targetPoint" />
          </mxGeometry>
        </mxCell>
        <mxCell id="t3rTMX0xg2tJ1wJNU89R-102" value="" style="endArrow=none;html=1;rounded=0;" parent="1" source="t3rTMX0xg2tJ1wJNU89R-70" target="t3rTMX0xg2tJ1wJNU89R-21" edge="1">
          <mxGeometry relative="1" as="geometry">
            <mxPoint x="-100" y="340" as="sourcePoint" />
            <mxPoint x="60" y="340" as="targetPoint" />
          </mxGeometry>
        </mxCell>
        <mxCell id="t3rTMX0xg2tJ1wJNU89R-103" value="" style="endArrow=none;html=1;rounded=0;exitX=1;exitY=1;exitDx=0;exitDy=0;" parent="1" source="t3rTMX0xg2tJ1wJNU89R-21" target="t3rTMX0xg2tJ1wJNU89R-73" edge="1">
          <mxGeometry relative="1" as="geometry">
            <mxPoint x="40" y="380" as="sourcePoint" />
            <mxPoint x="60" y="340" as="targetPoint" />
          </mxGeometry>
        </mxCell>
        <mxCell id="t3rTMX0xg2tJ1wJNU89R-104" value="" style="endArrow=none;html=1;rounded=0;" parent="1" source="t3rTMX0xg2tJ1wJNU89R-21" target="t3rTMX0xg2tJ1wJNU89R-72" edge="1">
          <mxGeometry relative="1" as="geometry">
            <mxPoint x="-100" y="340" as="sourcePoint" />
            <mxPoint x="60" y="340" as="targetPoint" />
          </mxGeometry>
        </mxCell>
        <mxCell id="t3rTMX0xg2tJ1wJNU89R-107" value="Projects" style="whiteSpace=wrap;html=1;align=center;fillColor=light-dark(#AFEEEE,var(--ge-dark-color, #121212));" parent="1" vertex="1">
          <mxGeometry x="-530" y="340" width="100" height="40" as="geometry" />
        </mxCell>
        <mxCell id="t3rTMX0xg2tJ1wJNU89R-108" value="client_id" style="ellipse;whiteSpace=wrap;html=1;align=center;fillColor=light-dark(#F08080,var(--ge-dark-color, #121212));" parent="1" vertex="1">
          <mxGeometry x="-660" y="280" width="100" height="40" as="geometry" />
        </mxCell>
        <mxCell id="t3rTMX0xg2tJ1wJNU89R-109" value="title" style="ellipse;whiteSpace=wrap;html=1;align=center;fillColor=light-dark(#AFEEEE,var(--ge-dark-color, #121212));" parent="1" vertex="1">
          <mxGeometry x="-400" y="340" width="100" height="40" as="geometry" />
        </mxCell>
        <mxCell id="t3rTMX0xg2tJ1wJNU89R-110" value="description" style="ellipse;whiteSpace=wrap;html=1;align=center;fillColor=light-dark(#AFEEEE,var(--ge-dark-color, #121212));" parent="1" vertex="1">
          <mxGeometry x="-400" y="280" width="100" height="40" as="geometry" />
        </mxCell>
        <mxCell id="t3rTMX0xg2tJ1wJNU89R-111" value="budget" style="ellipse;whiteSpace=wrap;html=1;align=center;fillColor=light-dark(#AFEEEE,var(--ge-dark-color, #121212));" parent="1" vertex="1">
          <mxGeometry x="-660" y="340" width="100" height="40" as="geometry" />
        </mxCell>
        <mxCell id="t3rTMX0xg2tJ1wJNU89R-112" value="deadline" style="ellipse;whiteSpace=wrap;html=1;align=center;fillColor=light-dark(#AFEEEE,var(--ge-dark-color, #121212));" parent="1" vertex="1">
          <mxGeometry x="-530" y="280" width="100" height="40" as="geometry" />
        </mxCell>
        <mxCell id="t3rTMX0xg2tJ1wJNU89R-113" value="posted_at" style="ellipse;whiteSpace=wrap;html=1;align=center;fontStyle=0;fillColor=light-dark(#AFEEEE,var(--ge-dark-color, #121212));" parent="1" vertex="1">
          <mxGeometry x="-530" y="400" width="100" height="40" as="geometry" />
        </mxCell>
        <mxCell id="t3rTMX0xg2tJ1wJNU89R-114" value="project_id" style="ellipse;whiteSpace=wrap;html=1;align=center;fontStyle=4;fillColor=light-dark(#AFEEEE,var(--ge-dark-color, #121212));" parent="1" vertex="1">
          <mxGeometry x="-400" y="400" width="100" height="40" as="geometry" />
        </mxCell>
        <mxCell id="t3rTMX0xg2tJ1wJNU89R-115" value="status" style="ellipse;whiteSpace=wrap;html=1;align=center;fillColor=light-dark(#AFEEEE,var(--ge-dark-color, #121212));" parent="1" vertex="1">
          <mxGeometry x="-660" y="400" width="100" height="40" as="geometry" />
        </mxCell>
        <mxCell id="t3rTMX0xg2tJ1wJNU89R-116" value="" style="endArrow=none;html=1;rounded=0;exitX=0;exitY=0;exitDx=0;exitDy=0;" parent="1" source="t3rTMX0xg2tJ1wJNU89R-107" target="t3rTMX0xg2tJ1wJNU89R-108" edge="1">
          <mxGeometry relative="1" as="geometry">
            <mxPoint x="-330" y="350" as="sourcePoint" />
            <mxPoint x="-170" y="350" as="targetPoint" />
          </mxGeometry>
        </mxCell>
        <mxCell id="t3rTMX0xg2tJ1wJNU89R-117" value="" style="endArrow=none;html=1;rounded=0;exitX=1;exitY=0;exitDx=0;exitDy=0;" parent="1" source="t3rTMX0xg2tJ1wJNU89R-107" target="t3rTMX0xg2tJ1wJNU89R-110" edge="1">
          <mxGeometry relative="1" as="geometry">
            <mxPoint x="-330" y="350" as="sourcePoint" />
            <mxPoint x="-170" y="350" as="targetPoint" />
          </mxGeometry>
        </mxCell>
        <mxCell id="t3rTMX0xg2tJ1wJNU89R-118" value="" style="endArrow=none;html=1;rounded=0;" parent="1" source="t3rTMX0xg2tJ1wJNU89R-107" target="t3rTMX0xg2tJ1wJNU89R-109" edge="1">
          <mxGeometry relative="1" as="geometry">
            <mxPoint x="-330" y="350" as="sourcePoint" />
            <mxPoint x="-170" y="350" as="targetPoint" />
          </mxGeometry>
        </mxCell>
        <mxCell id="t3rTMX0xg2tJ1wJNU89R-119" value="" style="endArrow=none;html=1;rounded=0;exitX=1;exitY=1;exitDx=0;exitDy=0;" parent="1" source="t3rTMX0xg2tJ1wJNU89R-107" target="t3rTMX0xg2tJ1wJNU89R-114" edge="1">
          <mxGeometry relative="1" as="geometry">
            <mxPoint x="-330" y="350" as="sourcePoint" />
            <mxPoint x="-170" y="350" as="targetPoint" />
          </mxGeometry>
        </mxCell>
        <mxCell id="t3rTMX0xg2tJ1wJNU89R-120" value="" style="endArrow=none;html=1;rounded=0;" parent="1" source="t3rTMX0xg2tJ1wJNU89R-107" target="t3rTMX0xg2tJ1wJNU89R-113" edge="1">
          <mxGeometry relative="1" as="geometry">
            <mxPoint x="-330" y="350" as="sourcePoint" />
            <mxPoint x="-170" y="350" as="targetPoint" />
          </mxGeometry>
        </mxCell>
        <mxCell id="t3rTMX0xg2tJ1wJNU89R-121" value="" style="endArrow=none;html=1;rounded=0;" parent="1" source="t3rTMX0xg2tJ1wJNU89R-107" target="t3rTMX0xg2tJ1wJNU89R-111" edge="1">
          <mxGeometry relative="1" as="geometry">
            <mxPoint x="-330" y="350" as="sourcePoint" />
            <mxPoint x="-170" y="350" as="targetPoint" />
          </mxGeometry>
        </mxCell>
        <mxCell id="t3rTMX0xg2tJ1wJNU89R-122" value="" style="endArrow=none;html=1;rounded=0;exitX=0.5;exitY=0;exitDx=0;exitDy=0;" parent="1" source="t3rTMX0xg2tJ1wJNU89R-107" target="t3rTMX0xg2tJ1wJNU89R-112" edge="1">
          <mxGeometry relative="1" as="geometry">
            <mxPoint x="-330" y="350" as="sourcePoint" />
            <mxPoint x="-170" y="350" as="targetPoint" />
          </mxGeometry>
        </mxCell>
        <mxCell id="t3rTMX0xg2tJ1wJNU89R-123" value="" style="endArrow=none;html=1;rounded=0;entryX=0;entryY=1;entryDx=0;entryDy=0;" parent="1" source="t3rTMX0xg2tJ1wJNU89R-115" target="t3rTMX0xg2tJ1wJNU89R-107" edge="1">
          <mxGeometry relative="1" as="geometry">
            <mxPoint x="-570" y="400" as="sourcePoint" />
            <mxPoint x="-410" y="400" as="targetPoint" />
          </mxGeometry>
        </mxCell>
        <mxCell id="t3rTMX0xg2tJ1wJNU89R-125" value="Posts" style="shape=rhombus;perimeter=rhombusPerimeter;whiteSpace=wrap;html=1;align=center;fillColor=light-dark(#FFFFF0,var(--ge-dark-color, #121212));" parent="1" vertex="1">
          <mxGeometry x="-780" y="60" width="70" height="40" as="geometry" />
        </mxCell>
        <mxCell id="t3rTMX0xg2tJ1wJNU89R-130" value="Has" style="shape=rhombus;perimeter=rhombusPerimeter;whiteSpace=wrap;html=1;align=center;fillColor=light-dark(#FFFFF0,var(--ge-dark-color, #121212));" parent="1" vertex="1">
          <mxGeometry x="-265" y="400" width="50" height="40" as="geometry" />
        </mxCell>
        <mxCell id="t3rTMX0xg2tJ1wJNU89R-132" value="Proposals" style="whiteSpace=wrap;html=1;align=center;fillColor=light-dark(#E6E6FA,var(--ge-dark-color, #121212));" parent="1" vertex="1">
          <mxGeometry x="430" y="340" width="100" height="40" as="geometry" />
        </mxCell>
        <mxCell id="t3rTMX0xg2tJ1wJNU89R-133" value="proposal_text" style="ellipse;whiteSpace=wrap;html=1;align=center;fillColor=light-dark(#E6E6FA,var(--ge-dark-color, #121212));" parent="1" vertex="1">
          <mxGeometry x="430" y="280" width="100" height="40" as="geometry" />
        </mxCell>
        <mxCell id="t3rTMX0xg2tJ1wJNU89R-134" value="bid_amount" style="ellipse;whiteSpace=wrap;html=1;align=center;fillColor=light-dark(#E6E6FA,var(--ge-dark-color, #121212));" parent="1" vertex="1">
          <mxGeometry x="560" y="340" width="100" height="40" as="geometry" />
        </mxCell>
        <mxCell id="t3rTMX0xg2tJ1wJNU89R-135" value="status" style="ellipse;whiteSpace=wrap;html=1;align=center;fillColor=light-dark(#E6E6FA,var(--ge-dark-color, #121212));" parent="1" vertex="1">
          <mxGeometry x="300" y="340" width="100" height="40" as="geometry" />
        </mxCell>
        <mxCell id="t3rTMX0xg2tJ1wJNU89R-136" value="submitted_at" style="ellipse;whiteSpace=wrap;html=1;align=center;fillColor=light-dark(#E6E6FA,var(--ge-dark-color, #121212));" parent="1" vertex="1">
          <mxGeometry x="300" y="280" width="100" height="40" as="geometry" />
        </mxCell>
        <mxCell id="t3rTMX0xg2tJ1wJNU89R-137" value="freelancer_id" style="ellipse;whiteSpace=wrap;html=1;align=center;fillColor=light-dark(#87CEEB,var(--ge-dark-color, #121212));" parent="1" vertex="1">
          <mxGeometry x="560" y="280" width="100" height="40" as="geometry" />
        </mxCell>
        <mxCell id="t3rTMX0xg2tJ1wJNU89R-138" value="project_id" style="ellipse;whiteSpace=wrap;html=1;align=center;fillColor=light-dark(#AFEEEE,var(--ge-dark-color, #121212));" parent="1" vertex="1">
          <mxGeometry x="300" y="400" width="100" height="40" as="geometry" />
        </mxCell>
        <mxCell id="t3rTMX0xg2tJ1wJNU89R-139" value="proposal_id" style="ellipse;whiteSpace=wrap;html=1;align=center;fontStyle=4;fillColor=light-dark(#E6E6FA,var(--ge-dark-color, #121212));" parent="1" vertex="1">
          <mxGeometry x="560" y="400" width="100" height="40" as="geometry" />
        </mxCell>
        <mxCell id="t3rTMX0xg2tJ1wJNU89R-140" value="" style="endArrow=none;html=1;rounded=0;exitX=0;exitY=0;exitDx=0;exitDy=0;" parent="1" source="t3rTMX0xg2tJ1wJNU89R-132" edge="1">
          <mxGeometry relative="1" as="geometry">
            <mxPoint x="230" y="310" as="sourcePoint" />
            <mxPoint x="390" y="310" as="targetPoint" />
          </mxGeometry>
        </mxCell>
        <mxCell id="t3rTMX0xg2tJ1wJNU89R-141" value="" style="endArrow=none;html=1;rounded=0;" parent="1" source="t3rTMX0xg2tJ1wJNU89R-132" target="t3rTMX0xg2tJ1wJNU89R-135" edge="1">
          <mxGeometry relative="1" as="geometry">
            <mxPoint x="230" y="310" as="sourcePoint" />
            <mxPoint x="390" y="310" as="targetPoint" />
          </mxGeometry>
        </mxCell>
        <mxCell id="t3rTMX0xg2tJ1wJNU89R-142" value="" style="endArrow=none;html=1;rounded=0;entryX=0;entryY=1;entryDx=0;entryDy=0;" parent="1" source="t3rTMX0xg2tJ1wJNU89R-138" target="t3rTMX0xg2tJ1wJNU89R-132" edge="1">
          <mxGeometry relative="1" as="geometry">
            <mxPoint x="230" y="310" as="sourcePoint" />
            <mxPoint x="390" y="310" as="targetPoint" />
          </mxGeometry>
        </mxCell>
        <mxCell id="t3rTMX0xg2tJ1wJNU89R-143" value="" style="endArrow=none;html=1;rounded=0;" parent="1" source="t3rTMX0xg2tJ1wJNU89R-133" target="t3rTMX0xg2tJ1wJNU89R-132" edge="1">
          <mxGeometry relative="1" as="geometry">
            <mxPoint x="230" y="310" as="sourcePoint" />
            <mxPoint x="390" y="310" as="targetPoint" />
          </mxGeometry>
        </mxCell>
        <mxCell id="t3rTMX0xg2tJ1wJNU89R-144" value="" style="endArrow=none;html=1;rounded=0;entryX=1;entryY=0;entryDx=0;entryDy=0;" parent="1" source="t3rTMX0xg2tJ1wJNU89R-137" target="t3rTMX0xg2tJ1wJNU89R-132" edge="1">
          <mxGeometry relative="1" as="geometry">
            <mxPoint x="230" y="310" as="sourcePoint" />
            <mxPoint x="390" y="310" as="targetPoint" />
          </mxGeometry>
        </mxCell>
        <mxCell id="t3rTMX0xg2tJ1wJNU89R-145" value="" style="endArrow=none;html=1;rounded=0;" parent="1" source="t3rTMX0xg2tJ1wJNU89R-134" target="t3rTMX0xg2tJ1wJNU89R-132" edge="1">
          <mxGeometry relative="1" as="geometry">
            <mxPoint x="230" y="310" as="sourcePoint" />
            <mxPoint x="390" y="310" as="targetPoint" />
          </mxGeometry>
        </mxCell>
        <mxCell id="t3rTMX0xg2tJ1wJNU89R-146" value="" style="endArrow=none;html=1;rounded=0;entryX=1;entryY=1;entryDx=0;entryDy=0;" parent="1" source="t3rTMX0xg2tJ1wJNU89R-139" target="t3rTMX0xg2tJ1wJNU89R-132" edge="1">
          <mxGeometry relative="1" as="geometry">
            <mxPoint x="230" y="310" as="sourcePoint" />
            <mxPoint x="390" y="310" as="targetPoint" />
          </mxGeometry>
        </mxCell>
        <mxCell id="t3rTMX0xg2tJ1wJNU89R-147" value="Submits" style="shape=rhombus;perimeter=rhombusPerimeter;whiteSpace=wrap;html=1;align=center;fillColor=light-dark(#FFFFF0,var(--ge-dark-color, #121212));" parent="1" vertex="1">
          <mxGeometry x="670" y="200" width="80" height="40" as="geometry" />
        </mxCell>
        <mxCell id="t3rTMX0xg2tJ1wJNU89R-151" value="Receives" style="shape=rhombus;perimeter=rhombusPerimeter;whiteSpace=wrap;html=1;align=center;fillColor=light-dark(#FFFFF0,var(--ge-dark-color, #121212));" parent="1" vertex="1">
          <mxGeometry x="-40" y="478" width="80" height="40" as="geometry" />
        </mxCell>
        <mxCell id="t3rTMX0xg2tJ1wJNU89R-154" value="Contracts" style="whiteSpace=wrap;html=1;align=center;fillColor=light-dark(#FFDAB9,var(--ge-dark-color, #121212));" parent="1" vertex="1">
          <mxGeometry x="-50" y="620" width="100" height="40" as="geometry" />
        </mxCell>
        <mxCell id="t3rTMX0xg2tJ1wJNU89R-155" value="status" style="ellipse;whiteSpace=wrap;html=1;align=center;fontStyle=0;fillColor=light-dark(#FFDAB9,var(--ge-dark-color, #121212));" parent="1" vertex="1">
          <mxGeometry x="-120" y="558" width="100" height="40" as="geometry" />
        </mxCell>
        <mxCell id="t3rTMX0xg2tJ1wJNU89R-156" value="freelancer_id" style="ellipse;whiteSpace=wrap;html=1;align=center;fillColor=light-dark(#87CEEB,var(--ge-dark-color, #121212));" parent="1" vertex="1">
          <mxGeometry x="80" y="620" width="100" height="40" as="geometry" />
        </mxCell>
        <mxCell id="t3rTMX0xg2tJ1wJNU89R-157" value="proposal_id" style="ellipse;whiteSpace=wrap;html=1;align=center;fillColor=light-dark(#E6E6FA,var(--ge-dark-color, #121212));" parent="1" vertex="1">
          <mxGeometry x="140" y="558" width="100" height="40" as="geometry" />
        </mxCell>
        <mxCell id="t3rTMX0xg2tJ1wJNU89R-158" value="start_date" style="ellipse;whiteSpace=wrap;html=1;align=center;fontStyle=0;fillColor=light-dark(#FFDAB9,var(--ge-dark-color, #121212));" parent="1" vertex="1">
          <mxGeometry x="-180" y="620" width="100" height="40" as="geometry" />
        </mxCell>
        <mxCell id="t3rTMX0xg2tJ1wJNU89R-159" value="agreed_price" style="ellipse;whiteSpace=wrap;html=1;align=center;fillColor=light-dark(#FFDAB9,var(--ge-dark-color, #121212));" parent="1" vertex="1">
          <mxGeometry x="20" y="560" width="100" height="40" as="geometry" />
        </mxCell>
        <mxCell id="t3rTMX0xg2tJ1wJNU89R-160" value="contract_id" style="ellipse;whiteSpace=wrap;html=1;align=center;fontStyle=4;fillColor=light-dark(#FFDAB9,var(--ge-dark-color, #121212));" parent="1" vertex="1">
          <mxGeometry x="-180" y="680" width="100" height="40" as="geometry" />
        </mxCell>
        <mxCell id="t3rTMX0xg2tJ1wJNU89R-161" value="end_date" style="ellipse;whiteSpace=wrap;html=1;align=center;fillColor=light-dark(#FFDAB9,var(--ge-dark-color, #121212));" parent="1" vertex="1">
          <mxGeometry x="80" y="680" width="100" height="40" as="geometry" />
        </mxCell>
        <mxCell id="t3rTMX0xg2tJ1wJNU89R-173" value="project_id" style="ellipse;whiteSpace=wrap;html=1;align=center;fillColor=light-dark(#AFEEEE,var(--ge-dark-color, #121212));" parent="1" vertex="1">
          <mxGeometry x="-240" y="558" width="100" height="40" as="geometry" />
        </mxCell>
        <mxCell id="t3rTMX0xg2tJ1wJNU89R-175" value="for" style="shape=rhombus;perimeter=rhombusPerimeter;whiteSpace=wrap;html=1;align=center;fillColor=light-dark(#FFFFF0,var(--ge-dark-color, #121212));" parent="1" vertex="1">
          <mxGeometry x="-390" y="480" width="80" height="40" as="geometry" />
        </mxCell>
        <mxCell id="t3rTMX0xg2tJ1wJNU89R-180" value="" style="endArrow=none;html=1;rounded=0;" parent="1" source="t3rTMX0xg2tJ1wJNU89R-154" target="t3rTMX0xg2tJ1wJNU89R-155" edge="1">
          <mxGeometry relative="1" as="geometry">
            <mxPoint x="-40" y="540" as="sourcePoint" />
            <mxPoint x="120" y="540" as="targetPoint" />
          </mxGeometry>
        </mxCell>
        <mxCell id="t3rTMX0xg2tJ1wJNU89R-181" value="" style="endArrow=none;html=1;rounded=0;exitX=1;exitY=0;exitDx=0;exitDy=0;" parent="1" source="t3rTMX0xg2tJ1wJNU89R-154" target="t3rTMX0xg2tJ1wJNU89R-157" edge="1">
          <mxGeometry relative="1" as="geometry">
            <mxPoint x="-40" y="540" as="sourcePoint" />
            <mxPoint x="120" y="540" as="targetPoint" />
          </mxGeometry>
        </mxCell>
        <mxCell id="t3rTMX0xg2tJ1wJNU89R-182" value="" style="endArrow=none;html=1;rounded=0;" parent="1" source="t3rTMX0xg2tJ1wJNU89R-154" target="t3rTMX0xg2tJ1wJNU89R-156" edge="1">
          <mxGeometry relative="1" as="geometry">
            <mxPoint x="-40" y="540" as="sourcePoint" />
            <mxPoint x="120" y="540" as="targetPoint" />
          </mxGeometry>
        </mxCell>
        <mxCell id="t3rTMX0xg2tJ1wJNU89R-183" value="" style="endArrow=none;html=1;rounded=0;exitX=1;exitY=1;exitDx=0;exitDy=0;" parent="1" source="t3rTMX0xg2tJ1wJNU89R-154" target="t3rTMX0xg2tJ1wJNU89R-161" edge="1">
          <mxGeometry relative="1" as="geometry">
            <mxPoint x="-40" y="540" as="sourcePoint" />
            <mxPoint x="120" y="540" as="targetPoint" />
          </mxGeometry>
        </mxCell>
        <mxCell id="t3rTMX0xg2tJ1wJNU89R-184" value="" style="endArrow=none;html=1;rounded=0;" parent="1" source="t3rTMX0xg2tJ1wJNU89R-154" target="t3rTMX0xg2tJ1wJNU89R-158" edge="1">
          <mxGeometry relative="1" as="geometry">
            <mxPoint x="-40" y="590" as="sourcePoint" />
            <mxPoint x="120" y="590" as="targetPoint" />
          </mxGeometry>
        </mxCell>
        <mxCell id="t3rTMX0xg2tJ1wJNU89R-185" value="" style="endArrow=none;html=1;rounded=0;entryX=0;entryY=1;entryDx=0;entryDy=0;" parent="1" source="t3rTMX0xg2tJ1wJNU89R-160" target="t3rTMX0xg2tJ1wJNU89R-154" edge="1">
          <mxGeometry relative="1" as="geometry">
            <mxPoint x="-40" y="590" as="sourcePoint" />
            <mxPoint x="120" y="590" as="targetPoint" />
          </mxGeometry>
        </mxCell>
        <mxCell id="t3rTMX0xg2tJ1wJNU89R-186" value="" style="endArrow=none;html=1;rounded=0;" parent="1" source="t3rTMX0xg2tJ1wJNU89R-159" target="t3rTMX0xg2tJ1wJNU89R-154" edge="1">
          <mxGeometry relative="1" as="geometry">
            <mxPoint x="-40" y="590" as="sourcePoint" />
            <mxPoint x="120" y="590" as="targetPoint" />
          </mxGeometry>
        </mxCell>
        <mxCell id="t3rTMX0xg2tJ1wJNU89R-187" value="" style="endArrow=none;html=1;rounded=0;entryX=0;entryY=0;entryDx=0;entryDy=0;" parent="1" source="t3rTMX0xg2tJ1wJNU89R-173" target="t3rTMX0xg2tJ1wJNU89R-154" edge="1">
          <mxGeometry relative="1" as="geometry">
            <mxPoint x="-40" y="590" as="sourcePoint" />
            <mxPoint x="120" y="590" as="targetPoint" />
          </mxGeometry>
        </mxCell>
        <mxCell id="t3rTMX0xg2tJ1wJNU89R-188" value="Payments" style="whiteSpace=wrap;html=1;align=center;fillColor=light-dark(#FFC0CB,var(--ge-dark-color, #121212));" parent="1" vertex="1">
          <mxGeometry x="-530" y="620" width="100" height="40" as="geometry" />
        </mxCell>
        <mxCell id="t3rTMX0xg2tJ1wJNU89R-189" value="payment_id" style="ellipse;whiteSpace=wrap;html=1;align=center;fontStyle=4;fillColor=light-dark(#FFC0CB,var(--ge-dark-color, #121212));" parent="1" vertex="1">
          <mxGeometry x="-660" y="560" width="100" height="40" as="geometry" />
        </mxCell>
        <mxCell id="t3rTMX0xg2tJ1wJNU89R-190" value="contract_id" style="ellipse;whiteSpace=wrap;html=1;align=center;fillColor=light-dark(#FFDAB9,var(--ge-dark-color, #121212));" parent="1" vertex="1">
          <mxGeometry x="-660" y="620" width="100" height="40" as="geometry" />
        </mxCell>
        <mxCell id="t3rTMX0xg2tJ1wJNU89R-191" value="amount" style="ellipse;whiteSpace=wrap;html=1;align=center;fillColor=light-dark(#FFC0CB,var(--ge-dark-color, #121212));" parent="1" vertex="1">
          <mxGeometry x="-400" y="620" width="100" height="40" as="geometry" />
        </mxCell>
        <mxCell id="t3rTMX0xg2tJ1wJNU89R-192" value="payment_method" style="ellipse;whiteSpace=wrap;html=1;align=center;fillColor=light-dark(#FFC0CB,var(--ge-dark-color, #121212));" parent="1" vertex="1">
          <mxGeometry x="-400" y="560" width="100" height="40" as="geometry" />
        </mxCell>
        <mxCell id="t3rTMX0xg2tJ1wJNU89R-193" value="status" style="ellipse;whiteSpace=wrap;html=1;align=center;fillColor=light-dark(#FFC0CB,var(--ge-dark-color, #121212));" parent="1" vertex="1">
          <mxGeometry x="-530" y="560" width="100" height="40" as="geometry" />
        </mxCell>
        <mxCell id="t3rTMX0xg2tJ1wJNU89R-203" value="" style="endArrow=none;html=1;rounded=0;" parent="1" source="t3rTMX0xg2tJ1wJNU89R-188" target="t3rTMX0xg2tJ1wJNU89R-193" edge="1">
          <mxGeometry relative="1" as="geometry">
            <mxPoint x="-370" y="500" as="sourcePoint" />
            <mxPoint x="-210" y="500" as="targetPoint" />
          </mxGeometry>
        </mxCell>
        <mxCell id="t3rTMX0xg2tJ1wJNU89R-204" value="" style="endArrow=none;html=1;rounded=0;" parent="1" source="t3rTMX0xg2tJ1wJNU89R-188" target="t3rTMX0xg2tJ1wJNU89R-191" edge="1">
          <mxGeometry relative="1" as="geometry">
            <mxPoint x="-370" y="500" as="sourcePoint" />
            <mxPoint x="-210" y="500" as="targetPoint" />
          </mxGeometry>
        </mxCell>
        <mxCell id="t3rTMX0xg2tJ1wJNU89R-205" value="" style="endArrow=none;html=1;rounded=0;exitX=0;exitY=0;exitDx=0;exitDy=0;" parent="1" source="t3rTMX0xg2tJ1wJNU89R-188" target="t3rTMX0xg2tJ1wJNU89R-189" edge="1">
          <mxGeometry relative="1" as="geometry">
            <mxPoint x="-370" y="500" as="sourcePoint" />
            <mxPoint x="-210" y="500" as="targetPoint" />
          </mxGeometry>
        </mxCell>
        <mxCell id="t3rTMX0xg2tJ1wJNU89R-206" value="" style="endArrow=none;html=1;rounded=0;exitX=1;exitY=0;exitDx=0;exitDy=0;" parent="1" source="t3rTMX0xg2tJ1wJNU89R-188" target="t3rTMX0xg2tJ1wJNU89R-192" edge="1">
          <mxGeometry relative="1" as="geometry">
            <mxPoint x="-370" y="500" as="sourcePoint" />
            <mxPoint x="-210" y="500" as="targetPoint" />
          </mxGeometry>
        </mxCell>
        <mxCell id="OAq5C0siEj5gdg_4fhg2-2" value="experience" style="ellipse;whiteSpace=wrap;html=1;align=center;fillColor=light-dark(#FFD700,var(--ge-dark-color, #121212));" parent="1" vertex="1">
          <mxGeometry x="300" y="160" width="100" height="40" as="geometry" />
        </mxCell>
        <mxCell id="OAq5C0siEj5gdg_4fhg2-3" value="" style="endArrow=none;html=1;rounded=0;entryX=0;entryY=1;entryDx=0;entryDy=0;" parent="1" source="OAq5C0siEj5gdg_4fhg2-2" target="gvMt2YW-roEtXW47RTCH-80" edge="1">
          <mxGeometry relative="1" as="geometry">
            <mxPoint x="320" y="160" as="sourcePoint" />
            <mxPoint x="480" y="160" as="targetPoint" />
          </mxGeometry>
        </mxCell>
        <mxCell id="OAq5C0siEj5gdg_4fhg2-5" value="portfolio" style="ellipse;whiteSpace=wrap;html=1;align=center;fontStyle=0;fillColor=light-dark(#FFD700,var(--ge-dark-color, #121212));" parent="1" vertex="1">
          <mxGeometry x="560" y="160" width="100" height="40" as="geometry" />
        </mxCell>
        <mxCell id="OAq5C0siEj5gdg_4fhg2-6" value="" style="endArrow=none;html=1;rounded=0;entryX=1;entryY=1;entryDx=0;entryDy=0;" parent="1" source="OAq5C0siEj5gdg_4fhg2-5" target="gvMt2YW-roEtXW47RTCH-80" edge="1">
          <mxGeometry relative="1" as="geometry">
            <mxPoint x="320" y="160" as="sourcePoint" />
            <mxPoint x="480" y="160" as="targetPoint" />
          </mxGeometry>
        </mxCell>
        <mxCell id="lUyRrB7iP-wXptOiPe6o-1" value="" style="endArrow=none;html=1;rounded=0;" parent="1" source="t3rTMX0xg2tJ1wJNU89R-12" target="t3rTMX0xg2tJ1wJNU89R-24" edge="1">
          <mxGeometry relative="1" as="geometry">
            <mxPoint x="-380" y="80" as="sourcePoint" />
            <mxPoint x="-220" y="80" as="targetPoint" />
          </mxGeometry>
        </mxCell>
        <mxCell id="lUyRrB7iP-wXptOiPe6o-2" value="" style="endArrow=none;html=1;rounded=0;" parent="1" source="t3rTMX0xg2tJ1wJNU89R-24" target="gvMt2YW-roEtXW47RTCH-64" edge="1">
          <mxGeometry relative="1" as="geometry">
            <mxPoint x="-380" y="80" as="sourcePoint" />
            <mxPoint x="-220" y="80" as="targetPoint" />
          </mxGeometry>
        </mxCell>
        <mxCell id="lUyRrB7iP-wXptOiPe6o-3" value="1" style="text;html=1;align=center;verticalAlign=middle;resizable=0;points=[];autosize=1;strokeColor=none;fillColor=none;" parent="1" vertex="1">
          <mxGeometry x="-376" y="30" width="30" height="30" as="geometry" />
        </mxCell>
        <mxCell id="lUyRrB7iP-wXptOiPe6o-4" value="1" style="text;html=1;align=center;verticalAlign=middle;resizable=0;points=[];autosize=1;strokeColor=none;fillColor=none;" parent="1" vertex="1">
          <mxGeometry x="-297" y="30" width="30" height="30" as="geometry" />
        </mxCell>
        <mxCell id="lUyRrB7iP-wXptOiPe6o-5" value="" style="endArrow=none;html=1;rounded=0;entryX=0;entryY=0.5;entryDx=0;entryDy=0;" parent="1" source="gvMt2YW-roEtXW47RTCH-64" target="t3rTMX0xg2tJ1wJNU89R-22" edge="1">
          <mxGeometry relative="1" as="geometry">
            <mxPoint x="390" y="60" as="sourcePoint" />
            <mxPoint x="550" y="60" as="targetPoint" />
          </mxGeometry>
        </mxCell>
        <mxCell id="lUyRrB7iP-wXptOiPe6o-6" value="" style="endArrow=none;html=1;rounded=0;exitX=1;exitY=0.5;exitDx=0;exitDy=0;" parent="1" source="t3rTMX0xg2tJ1wJNU89R-22" target="t3rTMX0xg2tJ1wJNU89R-2" edge="1">
          <mxGeometry relative="1" as="geometry">
            <mxPoint x="390" y="60" as="sourcePoint" />
            <mxPoint x="550" y="60" as="targetPoint" />
          </mxGeometry>
        </mxCell>
        <mxCell id="lUyRrB7iP-wXptOiPe6o-7" value="1" style="text;html=1;align=center;verticalAlign=middle;resizable=0;points=[];autosize=1;strokeColor=none;fillColor=none;" parent="1" vertex="1">
          <mxGeometry x="310" y="30" width="30" height="30" as="geometry" />
        </mxCell>
        <mxCell id="lUyRrB7iP-wXptOiPe6o-8" value="1" style="text;html=1;align=center;verticalAlign=middle;resizable=0;points=[];autosize=1;strokeColor=none;fillColor=none;" parent="1" vertex="1">
          <mxGeometry x="380" y="30" width="30" height="30" as="geometry" />
        </mxCell>
        <mxCell id="lUyRrB7iP-wXptOiPe6o-9" value="" style="endArrow=none;html=1;rounded=0;exitX=0.5;exitY=0;exitDx=0;exitDy=0;" parent="1" source="t3rTMX0xg2tJ1wJNU89R-125" target="t3rTMX0xg2tJ1wJNU89R-12" edge="1">
          <mxGeometry relative="1" as="geometry">
            <mxPoint x="-550" y="180" as="sourcePoint" />
            <mxPoint x="-390" y="180" as="targetPoint" />
          </mxGeometry>
        </mxCell>
        <mxCell id="lUyRrB7iP-wXptOiPe6o-10" value="" style="endArrow=none;html=1;rounded=0;" parent="1" source="t3rTMX0xg2tJ1wJNU89R-125" target="t3rTMX0xg2tJ1wJNU89R-108" edge="1">
          <mxGeometry relative="1" as="geometry">
            <mxPoint x="-550" y="180" as="sourcePoint" />
            <mxPoint x="-745" y="300" as="targetPoint" />
          </mxGeometry>
        </mxCell>
        <mxCell id="lUyRrB7iP-wXptOiPe6o-13" value="1" style="text;html=1;align=center;verticalAlign=middle;resizable=0;points=[];autosize=1;strokeColor=none;fillColor=none;" parent="1" vertex="1">
          <mxGeometry x="-755" y="38" width="30" height="30" as="geometry" />
        </mxCell>
        <mxCell id="lUyRrB7iP-wXptOiPe6o-14" value="N" style="text;html=1;align=center;verticalAlign=middle;resizable=0;points=[];autosize=1;strokeColor=none;fillColor=none;" parent="1" vertex="1">
          <mxGeometry x="-755" y="100" width="30" height="30" as="geometry" />
        </mxCell>
        <mxCell id="lUyRrB7iP-wXptOiPe6o-15" value="" style="endArrow=none;html=1;rounded=0;exitX=0.5;exitY=0;exitDx=0;exitDy=0;" parent="1" source="t3rTMX0xg2tJ1wJNU89R-98" target="gvMt2YW-roEtXW47RTCH-64" edge="1">
          <mxGeometry relative="1" as="geometry">
            <mxPoint x="-60" y="190" as="sourcePoint" />
            <mxPoint x="100" y="190" as="targetPoint" />
          </mxGeometry>
        </mxCell>
        <mxCell id="lUyRrB7iP-wXptOiPe6o-16" value="" style="endArrow=none;html=1;rounded=0;exitX=0.5;exitY=1;exitDx=0;exitDy=0;" parent="1" source="t3rTMX0xg2tJ1wJNU89R-98" target="t3rTMX0xg2tJ1wJNU89R-66" edge="1">
          <mxGeometry relative="1" as="geometry">
            <mxPoint x="-60" y="190" as="sourcePoint" />
            <mxPoint x="100" y="190" as="targetPoint" />
          </mxGeometry>
        </mxCell>
        <mxCell id="lUyRrB7iP-wXptOiPe6o-17" value="1" style="text;html=1;align=center;verticalAlign=middle;resizable=0;points=[];autosize=1;strokeColor=none;fillColor=none;" parent="1" vertex="1">
          <mxGeometry x="-160" y="130" width="30" height="30" as="geometry" />
        </mxCell>
        <mxCell id="lUyRrB7iP-wXptOiPe6o-18" value="N" style="text;html=1;align=center;verticalAlign=middle;resizable=0;points=[];autosize=1;strokeColor=none;fillColor=none;" parent="1" vertex="1">
          <mxGeometry x="-125" y="198" width="30" height="30" as="geometry" />
        </mxCell>
        <mxCell id="lUyRrB7iP-wXptOiPe6o-20" value="" style="endArrow=none;html=1;rounded=0;entryX=0.5;entryY=0;entryDx=0;entryDy=0;" parent="1" source="gvMt2YW-roEtXW47RTCH-64" target="t3rTMX0xg2tJ1wJNU89R-82" edge="1">
          <mxGeometry relative="1" as="geometry">
            <mxPoint x="-60" y="190" as="sourcePoint" />
            <mxPoint x="100" y="190" as="targetPoint" />
          </mxGeometry>
        </mxCell>
        <mxCell id="lUyRrB7iP-wXptOiPe6o-21" value="" style="endArrow=none;html=1;rounded=0;" parent="1" source="t3rTMX0xg2tJ1wJNU89R-67" target="t3rTMX0xg2tJ1wJNU89R-82" edge="1">
          <mxGeometry relative="1" as="geometry">
            <mxPoint x="-60" y="190" as="sourcePoint" />
            <mxPoint x="100" y="190" as="targetPoint" />
          </mxGeometry>
        </mxCell>
        <mxCell id="lUyRrB7iP-wXptOiPe6o-22" value="1" style="text;html=1;align=center;verticalAlign=middle;resizable=0;points=[];autosize=1;strokeColor=none;fillColor=none;" parent="1" vertex="1">
          <mxGeometry x="135" y="138" width="30" height="30" as="geometry" />
        </mxCell>
        <mxCell id="lUyRrB7iP-wXptOiPe6o-23" value="N" style="text;html=1;align=center;verticalAlign=middle;resizable=0;points=[];autosize=1;strokeColor=none;fillColor=none;" parent="1" vertex="1">
          <mxGeometry x="135" y="188" width="30" height="30" as="geometry" />
        </mxCell>
        <mxCell id="lUyRrB7iP-wXptOiPe6o-24" value="" style="endArrow=none;html=1;rounded=0;" parent="1" source="t3rTMX0xg2tJ1wJNU89R-58" target="t3rTMX0xg2tJ1wJNU89R-63" edge="1">
          <mxGeometry relative="1" as="geometry">
            <mxPoint x="370" y="-110" as="sourcePoint" />
            <mxPoint x="530" y="-110" as="targetPoint" />
          </mxGeometry>
        </mxCell>
        <mxCell id="lUyRrB7iP-wXptOiPe6o-25" value="" style="endArrow=none;html=1;rounded=0;" parent="1" source="t3rTMX0xg2tJ1wJNU89R-63" target="t3rTMX0xg2tJ1wJNU89R-28" edge="1">
          <mxGeometry relative="1" as="geometry">
            <mxPoint x="370" y="-110" as="sourcePoint" />
            <mxPoint x="530" y="-110" as="targetPoint" />
          </mxGeometry>
        </mxCell>
        <mxCell id="lUyRrB7iP-wXptOiPe6o-26" value="1" style="text;html=1;align=center;verticalAlign=middle;resizable=0;points=[];autosize=1;strokeColor=none;fillColor=none;" parent="1" vertex="1">
          <mxGeometry x="440" y="-210" width="30" height="30" as="geometry" />
        </mxCell>
        <mxCell id="lUyRrB7iP-wXptOiPe6o-28" value="1" style="text;html=1;align=center;verticalAlign=middle;resizable=0;points=[];autosize=1;strokeColor=none;fillColor=none;" parent="1" vertex="1">
          <mxGeometry x="515" y="-210" width="30" height="30" as="geometry" />
        </mxCell>
        <mxCell id="lUyRrB7iP-wXptOiPe6o-29" value="" style="endArrow=none;html=1;rounded=0;entryX=0.5;entryY=1;entryDx=0;entryDy=0;" parent="1" source="t3rTMX0xg2tJ1wJNU89R-2" target="t3rTMX0xg2tJ1wJNU89R-54" edge="1">
          <mxGeometry relative="1" as="geometry">
            <mxPoint x="570" y="80" as="sourcePoint" />
            <mxPoint x="730" y="80" as="targetPoint" />
          </mxGeometry>
        </mxCell>
        <mxCell id="lUyRrB7iP-wXptOiPe6o-30" value="" style="endArrow=none;html=1;rounded=0;entryX=0.5;entryY=0;entryDx=0;entryDy=0;" parent="1" source="t3rTMX0xg2tJ1wJNU89R-27" target="t3rTMX0xg2tJ1wJNU89R-54" edge="1">
          <mxGeometry relative="1" as="geometry">
            <mxPoint x="570" y="80" as="sourcePoint" />
            <mxPoint x="730" y="80" as="targetPoint" />
          </mxGeometry>
        </mxCell>
        <mxCell id="lUyRrB7iP-wXptOiPe6o-31" value="N" style="text;html=1;align=center;verticalAlign=middle;resizable=0;points=[];autosize=1;strokeColor=none;fillColor=none;" parent="1" vertex="1">
          <mxGeometry x="610" y="-20" width="30" height="30" as="geometry" />
        </mxCell>
        <mxCell id="lUyRrB7iP-wXptOiPe6o-32" value="1" style="text;html=1;align=center;verticalAlign=middle;resizable=0;points=[];autosize=1;strokeColor=none;fillColor=none;" parent="1" vertex="1">
          <mxGeometry x="610" y="40" width="30" height="30" as="geometry" />
        </mxCell>
        <mxCell id="lUyRrB7iP-wXptOiPe6o-33" value="" style="endArrow=none;html=1;rounded=0;exitX=0.5;exitY=0;exitDx=0;exitDy=0;entryX=1;entryY=0.5;entryDx=0;entryDy=0;" parent="1" source="t3rTMX0xg2tJ1wJNU89R-147" target="t3rTMX0xg2tJ1wJNU89R-2" edge="1">
          <mxGeometry relative="1" as="geometry">
            <mxPoint x="480" y="160" as="sourcePoint" />
            <mxPoint x="640" y="160" as="targetPoint" />
          </mxGeometry>
        </mxCell>
        <mxCell id="lUyRrB7iP-wXptOiPe6o-34" value="" style="endArrow=none;html=1;rounded=0;entryX=0.5;entryY=1;entryDx=0;entryDy=0;" parent="1" source="t3rTMX0xg2tJ1wJNU89R-137" target="t3rTMX0xg2tJ1wJNU89R-147" edge="1">
          <mxGeometry relative="1" as="geometry">
            <mxPoint x="480" y="360" as="sourcePoint" />
            <mxPoint x="640" y="360" as="targetPoint" />
          </mxGeometry>
        </mxCell>
        <mxCell id="lUyRrB7iP-wXptOiPe6o-35" value="1" style="text;html=1;align=center;verticalAlign=middle;resizable=0;points=[];autosize=1;strokeColor=none;fillColor=none;" parent="1" vertex="1">
          <mxGeometry x="705" y="178" width="30" height="30" as="geometry" />
        </mxCell>
        <mxCell id="lUyRrB7iP-wXptOiPe6o-36" value="1" style="text;html=1;align=center;verticalAlign=middle;resizable=0;points=[];autosize=1;strokeColor=none;fillColor=none;" parent="1" vertex="1">
          <mxGeometry x="705" y="238" width="30" height="30" as="geometry" />
        </mxCell>
        <mxCell id="lUyRrB7iP-wXptOiPe6o-37" value="" style="endArrow=none;html=1;rounded=0;" parent="1" source="t3rTMX0xg2tJ1wJNU89R-2" edge="1">
          <mxGeometry relative="1" as="geometry">
            <mxPoint x="410" y="150" as="sourcePoint" />
            <mxPoint x="840" y="120" as="targetPoint" />
          </mxGeometry>
        </mxCell>
        <mxCell id="lUyRrB7iP-wXptOiPe6o-38" value="" style="endArrow=none;html=1;rounded=0;" parent="1" edge="1">
          <mxGeometry relative="1" as="geometry">
            <mxPoint x="800" y="120" as="sourcePoint" />
            <mxPoint x="800" y="490" as="targetPoint" />
          </mxGeometry>
        </mxCell>
        <mxCell id="lUyRrB7iP-wXptOiPe6o-39" value="" style="endArrow=none;html=1;rounded=0;exitX=0.5;exitY=0;exitDx=0;exitDy=0;" parent="1" source="t3rTMX0xg2tJ1wJNU89R-162" edge="1">
          <mxGeometry relative="1" as="geometry">
            <mxPoint x="499.9966666666665" y="480" as="sourcePoint" />
            <mxPoint x="800" y="490" as="targetPoint" />
          </mxGeometry>
        </mxCell>
        <mxCell id="lUyRrB7iP-wXptOiPe6o-40" value="" style="endArrow=none;html=1;rounded=0;entryX=0.5;entryY=1;entryDx=0;entryDy=0;" parent="1" source="t3rTMX0xg2tJ1wJNU89R-156" target="t3rTMX0xg2tJ1wJNU89R-162" edge="1">
          <mxGeometry relative="1" as="geometry">
            <mxPoint x="270" y="600" as="sourcePoint" />
            <mxPoint x="430" y="600" as="targetPoint" />
          </mxGeometry>
        </mxCell>
        <mxCell id="lUyRrB7iP-wXptOiPe6o-43" value="" style="endArrow=none;html=1;rounded=0;exitX=1;exitY=0.5;exitDx=0;exitDy=0;" parent="1" source="t3rTMX0xg2tJ1wJNU89R-178" target="t3rTMX0xg2tJ1wJNU89R-139" edge="1">
          <mxGeometry relative="1" as="geometry">
            <mxPoint x="210" y="490" as="sourcePoint" />
            <mxPoint x="370" y="490" as="targetPoint" />
          </mxGeometry>
        </mxCell>
        <mxCell id="lUyRrB7iP-wXptOiPe6o-44" value="" style="endArrow=none;html=1;rounded=0;entryX=0;entryY=0.5;entryDx=0;entryDy=0;" parent="1" source="t3rTMX0xg2tJ1wJNU89R-157" target="t3rTMX0xg2tJ1wJNU89R-178" edge="1">
          <mxGeometry relative="1" as="geometry">
            <mxPoint x="210" y="490" as="sourcePoint" />
            <mxPoint x="370" y="490" as="targetPoint" />
          </mxGeometry>
        </mxCell>
        <mxCell id="lUyRrB7iP-wXptOiPe6o-47" value="" style="endArrow=none;html=1;rounded=0;entryX=0;entryY=0.5;entryDx=0;entryDy=0;" parent="1" source="t3rTMX0xg2tJ1wJNU89R-114" target="t3rTMX0xg2tJ1wJNU89R-151" edge="1">
          <mxGeometry relative="1" as="geometry">
            <mxPoint x="-60" y="410" as="sourcePoint" />
            <mxPoint x="100" y="410" as="targetPoint" />
          </mxGeometry>
        </mxCell>
        <mxCell id="lUyRrB7iP-wXptOiPe6o-48" value="" style="endArrow=none;html=1;rounded=0;exitX=1;exitY=0.5;exitDx=0;exitDy=0;" parent="1" source="t3rTMX0xg2tJ1wJNU89R-151" target="t3rTMX0xg2tJ1wJNU89R-138" edge="1">
          <mxGeometry relative="1" as="geometry">
            <mxPoint x="-60" y="410" as="sourcePoint" />
            <mxPoint x="100" y="410" as="targetPoint" />
          </mxGeometry>
        </mxCell>
        <mxCell id="lUyRrB7iP-wXptOiPe6o-49" value="N" style="text;html=1;align=center;verticalAlign=middle;resizable=0;points=[];autosize=1;strokeColor=none;fillColor=none;" parent="1" vertex="1">
          <mxGeometry x="20" y="470" width="30" height="30" as="geometry" />
        </mxCell>
        <mxCell id="lUyRrB7iP-wXptOiPe6o-50" value="1" style="text;html=1;align=center;verticalAlign=middle;resizable=0;points=[];autosize=1;strokeColor=none;fillColor=none;" parent="1" vertex="1">
          <mxGeometry x="-60" y="470" width="30" height="30" as="geometry" />
        </mxCell>
        <mxCell id="lUyRrB7iP-wXptOiPe6o-51" value="" style="endArrow=none;html=1;rounded=0;exitX=1;exitY=0.5;exitDx=0;exitDy=0;" parent="1" source="t3rTMX0xg2tJ1wJNU89R-130" target="t3rTMX0xg2tJ1wJNU89R-74" edge="1">
          <mxGeometry relative="1" as="geometry">
            <mxPoint x="-290" y="410" as="sourcePoint" />
            <mxPoint x="-130" y="410" as="targetPoint" />
          </mxGeometry>
        </mxCell>
        <mxCell id="lUyRrB7iP-wXptOiPe6o-52" value="" style="endArrow=none;html=1;rounded=0;entryX=0;entryY=0.5;entryDx=0;entryDy=0;" parent="1" source="t3rTMX0xg2tJ1wJNU89R-114" target="t3rTMX0xg2tJ1wJNU89R-130" edge="1">
          <mxGeometry relative="1" as="geometry">
            <mxPoint x="-290" y="410" as="sourcePoint" />
            <mxPoint x="-130" y="410" as="targetPoint" />
          </mxGeometry>
        </mxCell>
        <mxCell id="lUyRrB7iP-wXptOiPe6o-53" value="N" style="text;html=1;align=center;verticalAlign=middle;resizable=0;points=[];autosize=1;strokeColor=none;fillColor=none;" parent="1" vertex="1">
          <mxGeometry x="-225" y="390" width="30" height="30" as="geometry" />
        </mxCell>
        <mxCell id="lUyRrB7iP-wXptOiPe6o-54" value="1" style="text;html=1;align=center;verticalAlign=middle;resizable=0;points=[];autosize=1;strokeColor=none;fillColor=none;" parent="1" vertex="1">
          <mxGeometry x="-285" y="388" width="30" height="30" as="geometry" />
        </mxCell>
        <mxCell id="lUyRrB7iP-wXptOiPe6o-55" value="" style="endArrow=none;html=1;rounded=0;entryX=0.5;entryY=0;entryDx=0;entryDy=0;" parent="1" source="t3rTMX0xg2tJ1wJNU89R-114" target="t3rTMX0xg2tJ1wJNU89R-175" edge="1">
          <mxGeometry relative="1" as="geometry">
            <mxPoint x="-290" y="480" as="sourcePoint" />
            <mxPoint x="-130" y="480" as="targetPoint" />
          </mxGeometry>
        </mxCell>
        <mxCell id="lUyRrB7iP-wXptOiPe6o-56" value="" style="endArrow=none;html=1;rounded=0;exitX=1;exitY=0.5;exitDx=0;exitDy=0;" parent="1" source="t3rTMX0xg2tJ1wJNU89R-175" target="t3rTMX0xg2tJ1wJNU89R-173" edge="1">
          <mxGeometry relative="1" as="geometry">
            <mxPoint x="-290" y="550" as="sourcePoint" />
            <mxPoint x="-130" y="550" as="targetPoint" />
          </mxGeometry>
        </mxCell>
        <mxCell id="lUyRrB7iP-wXptOiPe6o-57" value="1" style="text;html=1;align=center;verticalAlign=middle;resizable=0;points=[];autosize=1;strokeColor=none;fillColor=none;" parent="1" vertex="1">
          <mxGeometry x="-380" y="460" width="30" height="30" as="geometry" />
        </mxCell>
        <mxCell id="lUyRrB7iP-wXptOiPe6o-58" value="1" style="text;html=1;align=center;verticalAlign=middle;resizable=0;points=[];autosize=1;strokeColor=none;fillColor=none;" parent="1" vertex="1">
          <mxGeometry x="-315" y="478" width="30" height="30" as="geometry" />
        </mxCell>
        <mxCell id="lUyRrB7iP-wXptOiPe6o-59" value="" style="endArrow=none;html=1;rounded=0;" parent="1" source="t3rTMX0xg2tJ1wJNU89R-195" target="t3rTMX0xg2tJ1wJNU89R-160" edge="1">
          <mxGeometry relative="1" as="geometry">
            <mxPoint x="-450" y="630" as="sourcePoint" />
            <mxPoint x="-290" y="630" as="targetPoint" />
          </mxGeometry>
        </mxCell>
        <mxCell id="lUyRrB7iP-wXptOiPe6o-61" value="" style="endArrow=none;html=1;rounded=0;entryX=0;entryY=0.5;entryDx=0;entryDy=0;" parent="1" source="t3rTMX0xg2tJ1wJNU89R-190" target="t3rTMX0xg2tJ1wJNU89R-195" edge="1">
          <mxGeometry relative="1" as="geometry">
            <mxPoint x="-450" y="630" as="sourcePoint" />
            <mxPoint x="-290" y="630" as="targetPoint" />
          </mxGeometry>
        </mxCell>
        <mxCell id="wQE8poqMORz0fsExs2S8-1" value="" style="endArrow=none;html=1;rounded=0;" parent="1" source="t3rTMX0xg2tJ1wJNU89R-190" target="t3rTMX0xg2tJ1wJNU89R-188" edge="1">
          <mxGeometry relative="1" as="geometry">
            <mxPoint x="-500" y="640" as="sourcePoint" />
            <mxPoint x="-550" y="660" as="targetPoint" />
          </mxGeometry>
        </mxCell>
        <mxCell id="wQE8poqMORz0fsExs2S8-2" value="" style="group" parent="1" vertex="1" connectable="0">
          <mxGeometry x="-630" y="668" width="120" height="52" as="geometry" />
        </mxCell>
        <mxCell id="t3rTMX0xg2tJ1wJNU89R-195" value="Paid" style="shape=rhombus;perimeter=rhombusPerimeter;whiteSpace=wrap;html=1;align=center;fillColor=light-dark(#FFFFF0,var(--ge-dark-color, #121212));" parent="wQE8poqMORz0fsExs2S8-2" vertex="1">
          <mxGeometry x="20" y="12" width="85" height="40" as="geometry" />
        </mxCell>
        <mxCell id="lUyRrB7iP-wXptOiPe6o-60" value="1" style="text;html=1;align=center;verticalAlign=middle;resizable=0;points=[];autosize=1;strokeColor=none;fillColor=none;" parent="wQE8poqMORz0fsExs2S8-2" vertex="1">
          <mxGeometry x="90" y="2" width="30" height="30" as="geometry" />
        </mxCell>
        <mxCell id="lUyRrB7iP-wXptOiPe6o-62" value="1" style="text;html=1;align=center;verticalAlign=middle;resizable=0;points=[];autosize=1;strokeColor=none;fillColor=none;" parent="wQE8poqMORz0fsExs2S8-2" vertex="1">
          <mxGeometry width="30" height="30" as="geometry" />
        </mxCell>
        <mxCell id="wQE8poqMORz0fsExs2S8-3" value="Invoices" style="whiteSpace=wrap;html=1;align=center;fillColor=light-dark(#FFFACD,var(--ge-dark-color, #121212));" parent="1" vertex="1">
          <mxGeometry x="-530" y="900" width="100" height="40" as="geometry" />
        </mxCell>
        <mxCell id="wQE8poqMORz0fsExs2S8-4" value="invoice_id" style="ellipse;whiteSpace=wrap;html=1;align=center;fillColor=light-dark(#FFFACD,var(--ge-dark-color, #121212));fontStyle=4" parent="1" vertex="1">
          <mxGeometry x="-530" y="838" width="100" height="40" as="geometry" />
        </mxCell>
        <mxCell id="wQE8poqMORz0fsExs2S8-5" value="net_amount" style="ellipse;whiteSpace=wrap;html=1;align=center;fillColor=light-dark(#FFFACD,var(--ge-dark-color, #121212));" parent="1" vertex="1">
          <mxGeometry x="-660" y="838" width="100" height="40" as="geometry" />
        </mxCell>
        <mxCell id="wQE8poqMORz0fsExs2S8-6" value="contract_id" style="ellipse;whiteSpace=wrap;html=1;align=center;fillColor=light-dark(#FFDAB9,var(--ge-dark-color, #121212));" parent="1" vertex="1">
          <mxGeometry x="-400" y="838" width="100" height="40" as="geometry" />
        </mxCell>
        <mxCell id="wQE8poqMORz0fsExs2S8-9" value="issued_at" style="ellipse;whiteSpace=wrap;html=1;align=center;fillColor=light-dark(#FFFACD,var(--ge-dark-color, #121212));" parent="1" vertex="1">
          <mxGeometry x="-400" y="900" width="100" height="40" as="geometry" />
        </mxCell>
        <mxCell id="wQE8poqMORz0fsExs2S8-10" value="status" style="ellipse;whiteSpace=wrap;html=1;align=center;fillColor=light-dark(#FFFACD,var(--ge-dark-color, #121212));" parent="1" vertex="1">
          <mxGeometry x="-400" y="960" width="100" height="40" as="geometry" />
        </mxCell>
        <mxCell id="wQE8poqMORz0fsExs2S8-12" value="client_id" style="ellipse;whiteSpace=wrap;html=1;align=center;fillColor=light-dark(#FFDAB9,var(--ge-dark-color, #121212));" parent="1" vertex="1">
          <mxGeometry x="-50" y="680" width="100" height="40" as="geometry" />
        </mxCell>
        <mxCell id="wQE8poqMORz0fsExs2S8-13" value="" style="endArrow=none;html=1;rounded=0;" parent="1" source="wQE8poqMORz0fsExs2S8-12" target="t3rTMX0xg2tJ1wJNU89R-154" edge="1">
          <mxGeometry relative="1" as="geometry">
            <mxPoint x="-340" y="760" as="sourcePoint" />
            <mxPoint x="-180" y="760" as="targetPoint" />
          </mxGeometry>
        </mxCell>
        <mxCell id="wQE8poqMORz0fsExs2S8-14" value="due_date" style="ellipse;whiteSpace=wrap;html=1;align=center;fillColor=light-dark(#FFFACD,var(--ge-dark-color, #121212));" parent="1" vertex="1">
          <mxGeometry x="-660" y="900" width="100" height="40" as="geometry" />
        </mxCell>
        <mxCell id="wQE8poqMORz0fsExs2S8-15" value="paid_at" style="ellipse;whiteSpace=wrap;html=1;align=center;fillColor=light-dark(#FFFACD,var(--ge-dark-color, #121212));" parent="1" vertex="1">
          <mxGeometry x="-660" y="960" width="100" height="40" as="geometry" />
        </mxCell>
        <mxCell id="wQE8poqMORz0fsExs2S8-16" value="" style="endArrow=none;html=1;rounded=0;fillColor=light-dark(#FFFACD,var(--ge-dark-color, #121212));" parent="1" source="wQE8poqMORz0fsExs2S8-3" target="wQE8poqMORz0fsExs2S8-9" edge="1">
          <mxGeometry relative="1" as="geometry">
            <mxPoint x="-340" y="880" as="sourcePoint" />
            <mxPoint x="-180" y="880" as="targetPoint" />
          </mxGeometry>
        </mxCell>
        <mxCell id="wQE8poqMORz0fsExs2S8-17" value="" style="endArrow=none;html=1;rounded=0;fillColor=light-dark(#FFFACD,var(--ge-dark-color, #121212));" parent="1" source="wQE8poqMORz0fsExs2S8-3" target="wQE8poqMORz0fsExs2S8-4" edge="1">
          <mxGeometry relative="1" as="geometry">
            <mxPoint x="-340" y="880" as="sourcePoint" />
            <mxPoint x="-180" y="880" as="targetPoint" />
          </mxGeometry>
        </mxCell>
        <mxCell id="wQE8poqMORz0fsExs2S8-18" value="" style="endArrow=none;html=1;rounded=0;fillColor=light-dark(#FFFACD,var(--ge-dark-color, #121212));" parent="1" source="wQE8poqMORz0fsExs2S8-3" target="wQE8poqMORz0fsExs2S8-14" edge="1">
          <mxGeometry relative="1" as="geometry">
            <mxPoint x="-340" y="880" as="sourcePoint" />
            <mxPoint x="-180" y="880" as="targetPoint" />
          </mxGeometry>
        </mxCell>
        <mxCell id="wQE8poqMORz0fsExs2S8-19" value="" style="endArrow=none;html=1;rounded=0;exitX=1;exitY=0;exitDx=0;exitDy=0;fillColor=light-dark(#FFFACD,var(--ge-dark-color, #121212));" parent="1" source="wQE8poqMORz0fsExs2S8-3" target="wQE8poqMORz0fsExs2S8-6" edge="1">
          <mxGeometry relative="1" as="geometry">
            <mxPoint x="-340" y="880" as="sourcePoint" />
            <mxPoint x="-180" y="880" as="targetPoint" />
          </mxGeometry>
        </mxCell>
        <mxCell id="wQE8poqMORz0fsExs2S8-20" value="" style="endArrow=none;html=1;rounded=0;entryX=0;entryY=0;entryDx=0;entryDy=0;fillColor=light-dark(#FFFACD,var(--ge-dark-color, #121212));" parent="1" source="wQE8poqMORz0fsExs2S8-5" target="wQE8poqMORz0fsExs2S8-3" edge="1">
          <mxGeometry relative="1" as="geometry">
            <mxPoint x="-340" y="880" as="sourcePoint" />
            <mxPoint x="-180" y="880" as="targetPoint" />
          </mxGeometry>
        </mxCell>
        <mxCell id="wQE8poqMORz0fsExs2S8-21" value="" style="endArrow=none;html=1;rounded=0;exitX=1;exitY=1;exitDx=0;exitDy=0;fillColor=light-dark(#FFFACD,var(--ge-dark-color, #121212));" parent="1" source="wQE8poqMORz0fsExs2S8-3" target="wQE8poqMORz0fsExs2S8-10" edge="1">
          <mxGeometry relative="1" as="geometry">
            <mxPoint x="-340" y="880" as="sourcePoint" />
            <mxPoint x="-180" y="880" as="targetPoint" />
          </mxGeometry>
        </mxCell>
        <mxCell id="wQE8poqMORz0fsExs2S8-22" value="" style="endArrow=none;html=1;rounded=0;exitX=0;exitY=1;exitDx=0;exitDy=0;fillColor=light-dark(#FFFACD,var(--ge-dark-color, #121212));" parent="1" source="wQE8poqMORz0fsExs2S8-3" target="wQE8poqMORz0fsExs2S8-15" edge="1">
          <mxGeometry relative="1" as="geometry">
            <mxPoint x="-340" y="880" as="sourcePoint" />
            <mxPoint x="-180" y="880" as="targetPoint" />
          </mxGeometry>
        </mxCell>
        <mxCell id="wQE8poqMORz0fsExs2S8-23" value="" style="group" parent="1" vertex="1" connectable="0">
          <mxGeometry x="430" y="386.78" width="109.9977777777778" height="53.22" as="geometry" />
        </mxCell>
        <mxCell id="t3rTMX0xg2tJ1wJNU89R-178" value="Accepted as" style="shape=rhombus;perimeter=rhombusPerimeter;whiteSpace=wrap;html=1;align=center;fillColor=light-dark(#FFFFF0,var(--ge-dark-color, #121212));" parent="wQE8poqMORz0fsExs2S8-23" vertex="1">
          <mxGeometry x="10.235555555555559" y="13.221538461538461" width="81.88444444444447" height="40.93846153846154" as="geometry" />
        </mxCell>
        <mxCell id="lUyRrB7iP-wXptOiPe6o-46" value="1" style="text;html=1;align=center;verticalAlign=middle;resizable=0;points=[];autosize=1;strokeColor=none;fillColor=none;" parent="wQE8poqMORz0fsExs2S8-23" vertex="1">
          <mxGeometry x="-10" y="11.611538461538462" width="30" height="30" as="geometry" />
        </mxCell>
        <mxCell id="lUyRrB7iP-wXptOiPe6o-45" value="1" style="text;html=1;align=center;verticalAlign=middle;resizable=0;points=[];autosize=1;strokeColor=none;fillColor=none;" parent="wQE8poqMORz0fsExs2S8-23" vertex="1">
          <mxGeometry x="79.9977777777778" y="11.609999999999957" width="30" height="30" as="geometry" />
        </mxCell>
        <mxCell id="wQE8poqMORz0fsExs2S8-25" value="contract_modification" style="whiteSpace=wrap;html=1;align=center;fontSize=10;fillColor=light-dark(#D5A6BD,var(--ge-dark-color, #121212));" parent="1" vertex="1">
          <mxGeometry x="-50" y="900" width="100" height="40" as="geometry" />
        </mxCell>
        <mxCell id="wQE8poqMORz0fsExs2S8-26" value="modification_id" style="ellipse;whiteSpace=wrap;html=1;align=center;fillColor=light-dark(#D5A6BD,var(--ge-dark-color, #121212));fontStyle=4" parent="1" vertex="1">
          <mxGeometry x="-50" y="838" width="100" height="40" as="geometry" />
        </mxCell>
        <mxCell id="wQE8poqMORz0fsExs2S8-27" value="contract_id" style="ellipse;whiteSpace=wrap;html=1;align=center;fillColor=light-dark(#FFDAB9,var(--ge-dark-color, #121212));" parent="1" vertex="1">
          <mxGeometry x="-180" y="838" width="100" height="40" as="geometry" />
        </mxCell>
        <mxCell id="wQE8poqMORz0fsExs2S8-28" value="modified_by" style="ellipse;whiteSpace=wrap;html=1;align=center;fillColor=light-dark(#87CEEB,var(--ge-dark-color, #121212));" parent="1" vertex="1">
          <mxGeometry x="-120" y="960" width="100" height="40" as="geometry" />
        </mxCell>
        <mxCell id="wQE8poqMORz0fsExs2S8-29" value="old_deadline" style="ellipse;whiteSpace=wrap;html=1;align=center;fillColor=light-dark(#D5A6BD,var(--ge-dark-color, #121212));" parent="1" vertex="1">
          <mxGeometry x="-180" y="900" width="100" height="40" as="geometry" />
        </mxCell>
        <mxCell id="wQE8poqMORz0fsExs2S8-30" value="new_deadline" style="ellipse;whiteSpace=wrap;html=1;align=center;fillColor=light-dark(#D5A6BD,var(--ge-dark-color, #121212));" parent="1" vertex="1">
          <mxGeometry x="-240" y="960" width="100" height="40" as="geometry" />
        </mxCell>
        <mxCell id="wQE8poqMORz0fsExs2S8-31" value="old_price" style="ellipse;whiteSpace=wrap;html=1;align=center;fillColor=light-dark(#D5A6BD,var(--ge-dark-color, #121212));" parent="1" vertex="1">
          <mxGeometry x="80" y="838" width="100" height="40" as="geometry" />
        </mxCell>
        <mxCell id="wQE8poqMORz0fsExs2S8-32" value="new_price" style="ellipse;whiteSpace=wrap;html=1;align=center;fillColor=light-dark(#D5A6BD,var(--ge-dark-color, #121212));" parent="1" vertex="1">
          <mxGeometry x="80" y="900" width="100" height="40" as="geometry" />
        </mxCell>
        <mxCell id="wQE8poqMORz0fsExs2S8-33" value="status" style="ellipse;whiteSpace=wrap;html=1;align=center;fillColor=light-dark(#D5A6BD,var(--ge-dark-color, #121212));" parent="1" vertex="1">
          <mxGeometry x="140" y="960" width="100" height="40" as="geometry" />
        </mxCell>
        <mxCell id="wQE8poqMORz0fsExs2S8-34" value="modified_at" style="ellipse;whiteSpace=wrap;html=1;align=center;fillColor=light-dark(#D5A6BD,var(--ge-dark-color, #121212));" parent="1" vertex="1">
          <mxGeometry x="20" y="960" width="100" height="40" as="geometry" />
        </mxCell>
        <mxCell id="wQE8poqMORz0fsExs2S8-35" value="" style="endArrow=none;html=1;rounded=0;fillColor=light-dark(#D5A6BD,var(--ge-dark-color, #121212));" parent="1" source="wQE8poqMORz0fsExs2S8-25" target="wQE8poqMORz0fsExs2S8-26" edge="1">
          <mxGeometry relative="1" as="geometry">
            <mxPoint x="-60" y="920" as="sourcePoint" />
            <mxPoint x="100" y="920" as="targetPoint" />
          </mxGeometry>
        </mxCell>
        <mxCell id="wQE8poqMORz0fsExs2S8-36" value="" style="endArrow=none;html=1;rounded=0;exitX=1;exitY=0;exitDx=0;exitDy=0;fillColor=light-dark(#D5A6BD,var(--ge-dark-color, #121212));" parent="1" source="wQE8poqMORz0fsExs2S8-25" target="wQE8poqMORz0fsExs2S8-31" edge="1">
          <mxGeometry relative="1" as="geometry">
            <mxPoint x="-60" y="920" as="sourcePoint" />
            <mxPoint x="100" y="920" as="targetPoint" />
          </mxGeometry>
        </mxCell>
        <mxCell id="wQE8poqMORz0fsExs2S8-37" value="" style="endArrow=none;html=1;rounded=0;exitX=0;exitY=0;exitDx=0;exitDy=0;fillColor=light-dark(#D5A6BD,var(--ge-dark-color, #121212));" parent="1" source="wQE8poqMORz0fsExs2S8-25" target="wQE8poqMORz0fsExs2S8-27" edge="1">
          <mxGeometry relative="1" as="geometry">
            <mxPoint x="-60" y="920" as="sourcePoint" />
            <mxPoint x="100" y="920" as="targetPoint" />
          </mxGeometry>
        </mxCell>
        <mxCell id="wQE8poqMORz0fsExs2S8-38" value="" style="endArrow=none;html=1;rounded=0;fillColor=light-dark(#D5A6BD,var(--ge-dark-color, #121212));" parent="1" source="wQE8poqMORz0fsExs2S8-25" target="wQE8poqMORz0fsExs2S8-32" edge="1">
          <mxGeometry relative="1" as="geometry">
            <mxPoint x="-60" y="920" as="sourcePoint" />
            <mxPoint x="100" y="920" as="targetPoint" />
          </mxGeometry>
        </mxCell>
        <mxCell id="wQE8poqMORz0fsExs2S8-39" value="" style="endArrow=none;html=1;rounded=0;fillColor=light-dark(#D5A6BD,var(--ge-dark-color, #121212));" parent="1" source="wQE8poqMORz0fsExs2S8-29" target="wQE8poqMORz0fsExs2S8-25" edge="1">
          <mxGeometry relative="1" as="geometry">
            <mxPoint x="-60" y="920" as="sourcePoint" />
            <mxPoint x="100" y="920" as="targetPoint" />
          </mxGeometry>
        </mxCell>
        <mxCell id="wQE8poqMORz0fsExs2S8-41" value="" style="endArrow=none;html=1;rounded=0;fillColor=light-dark(#D5A6BD,var(--ge-dark-color, #121212));" parent="1" source="wQE8poqMORz0fsExs2S8-25" target="wQE8poqMORz0fsExs2S8-34" edge="1">
          <mxGeometry relative="1" as="geometry">
            <mxPoint x="-80" y="920" as="sourcePoint" />
            <mxPoint x="80" y="920" as="targetPoint" />
          </mxGeometry>
        </mxCell>
        <mxCell id="wQE8poqMORz0fsExs2S8-42" value="" style="endArrow=none;html=1;rounded=0;fillColor=light-dark(#D5A6BD,var(--ge-dark-color, #121212));" parent="1" source="wQE8poqMORz0fsExs2S8-28" target="wQE8poqMORz0fsExs2S8-25" edge="1">
          <mxGeometry relative="1" as="geometry">
            <mxPoint x="-30" y="970" as="sourcePoint" />
            <mxPoint x="130" y="970" as="targetPoint" />
          </mxGeometry>
        </mxCell>
        <mxCell id="wQE8poqMORz0fsExs2S8-43" value="" style="endArrow=none;html=1;rounded=0;exitX=1;exitY=1;exitDx=0;exitDy=0;fillColor=light-dark(#D5A6BD,var(--ge-dark-color, #121212));" parent="1" source="wQE8poqMORz0fsExs2S8-25" target="wQE8poqMORz0fsExs2S8-33" edge="1">
          <mxGeometry relative="1" as="geometry">
            <mxPoint x="-30" y="970" as="sourcePoint" />
            <mxPoint x="130" y="970" as="targetPoint" />
          </mxGeometry>
        </mxCell>
        <mxCell id="wQE8poqMORz0fsExs2S8-44" value="" style="endArrow=none;html=1;rounded=0;entryX=0;entryY=1;entryDx=0;entryDy=0;fillColor=light-dark(#D5A6BD,var(--ge-dark-color, #121212));" parent="1" source="wQE8poqMORz0fsExs2S8-30" target="wQE8poqMORz0fsExs2S8-25" edge="1">
          <mxGeometry relative="1" as="geometry">
            <mxPoint x="-30" y="970" as="sourcePoint" />
            <mxPoint x="130" y="970" as="targetPoint" />
          </mxGeometry>
        </mxCell>
        <mxCell id="wQE8poqMORz0fsExs2S8-45" value="support_tickets" style="whiteSpace=wrap;html=1;align=center;fillColor=light-dark(#FFD1DC,var(--ge-dark-color, #121212));" parent="1" vertex="1">
          <mxGeometry x="430" y="900" width="100" height="40" as="geometry" />
        </mxCell>
        <mxCell id="wQE8poqMORz0fsExs2S8-47" value="description" style="ellipse;whiteSpace=wrap;html=1;align=center;fillColor=light-dark(#FFD1DC,var(--ge-dark-color, #121212));" parent="1" vertex="1">
          <mxGeometry x="300" y="960" width="100" height="40" as="geometry" />
        </mxCell>
        <mxCell id="wQE8poqMORz0fsExs2S8-48" value="ticket_id" style="ellipse;whiteSpace=wrap;html=1;align=center;fillColor=light-dark(#FFD1DC,var(--ge-dark-color, #121212));fontStyle=4" parent="1" vertex="1">
          <mxGeometry x="430" y="838" width="100" height="40" as="geometry" />
        </mxCell>
        <mxCell id="wQE8poqMORz0fsExs2S8-49" value="raised_by" style="ellipse;whiteSpace=wrap;html=1;align=center;fillColor=light-dark(#87CEEB,var(--ge-dark-color, #121212));" parent="1" vertex="1">
          <mxGeometry x="560" y="900" width="100" height="40" as="geometry" />
        </mxCell>
        <mxCell id="wQE8poqMORz0fsExs2S8-50" value="status" style="ellipse;whiteSpace=wrap;html=1;align=center;fillColor=light-dark(#FFD1DC,var(--ge-dark-color, #121212));" parent="1" vertex="1">
          <mxGeometry x="560" y="838" width="100" height="40" as="geometry" />
        </mxCell>
        <mxCell id="wQE8poqMORz0fsExs2S8-51" value="created_at" style="ellipse;whiteSpace=wrap;html=1;align=center;fillColor=light-dark(#FFD1DC,var(--ge-dark-color, #121212));" parent="1" vertex="1">
          <mxGeometry x="300" y="838" width="100" height="40" as="geometry" />
        </mxCell>
        <mxCell id="wQE8poqMORz0fsExs2S8-52" value="resolved_at" style="ellipse;whiteSpace=wrap;html=1;align=center;fillColor=light-dark(#FFD1DC,var(--ge-dark-color, #121212));" parent="1" vertex="1">
          <mxGeometry x="300" y="900" width="100" height="40" as="geometry" />
        </mxCell>
        <mxCell id="wQE8poqMORz0fsExs2S8-53" value="subject" style="ellipse;whiteSpace=wrap;html=1;align=center;fillColor=light-dark(#FFD1DC,var(--ge-dark-color, #121212));" parent="1" vertex="1">
          <mxGeometry x="560" y="960" width="100" height="40" as="geometry" />
        </mxCell>
        <mxCell id="wQE8poqMORz0fsExs2S8-54" value="" style="endArrow=none;html=1;rounded=0;fillColor=light-dark(#FFD1DC,var(--ge-dark-color, #121212));" parent="1" source="wQE8poqMORz0fsExs2S8-48" target="wQE8poqMORz0fsExs2S8-45" edge="1">
          <mxGeometry relative="1" as="geometry">
            <mxPoint x="350" y="900" as="sourcePoint" />
            <mxPoint x="510" y="900" as="targetPoint" />
          </mxGeometry>
        </mxCell>
        <mxCell id="wQE8poqMORz0fsExs2S8-55" value="" style="endArrow=none;html=1;rounded=0;fillColor=light-dark(#FFD1DC,var(--ge-dark-color, #121212));" parent="1" source="wQE8poqMORz0fsExs2S8-52" target="wQE8poqMORz0fsExs2S8-45" edge="1">
          <mxGeometry relative="1" as="geometry">
            <mxPoint x="370" y="900" as="sourcePoint" />
            <mxPoint x="530" y="900" as="targetPoint" />
          </mxGeometry>
        </mxCell>
        <mxCell id="wQE8poqMORz0fsExs2S8-56" value="" style="endArrow=none;html=1;rounded=0;fillColor=light-dark(#FFD1DC,var(--ge-dark-color, #121212));" parent="1" source="wQE8poqMORz0fsExs2S8-45" target="wQE8poqMORz0fsExs2S8-49" edge="1">
          <mxGeometry relative="1" as="geometry">
            <mxPoint x="380" y="910" as="sourcePoint" />
            <mxPoint x="540" y="910" as="targetPoint" />
          </mxGeometry>
        </mxCell>
        <mxCell id="wQE8poqMORz0fsExs2S8-57" value="" style="endArrow=none;html=1;rounded=0;exitX=1;exitY=0;exitDx=0;exitDy=0;fillColor=light-dark(#FFD1DC,var(--ge-dark-color, #121212));" parent="1" source="wQE8poqMORz0fsExs2S8-45" target="wQE8poqMORz0fsExs2S8-50" edge="1">
          <mxGeometry relative="1" as="geometry">
            <mxPoint x="380" y="910" as="sourcePoint" />
            <mxPoint x="540" y="910" as="targetPoint" />
          </mxGeometry>
        </mxCell>
        <mxCell id="wQE8poqMORz0fsExs2S8-58" value="" style="endArrow=none;html=1;rounded=0;entryX=0;entryY=0;entryDx=0;entryDy=0;fillColor=light-dark(#FFD1DC,var(--ge-dark-color, #121212));" parent="1" source="wQE8poqMORz0fsExs2S8-51" target="wQE8poqMORz0fsExs2S8-45" edge="1">
          <mxGeometry relative="1" as="geometry">
            <mxPoint x="380" y="910" as="sourcePoint" />
            <mxPoint x="540" y="910" as="targetPoint" />
          </mxGeometry>
        </mxCell>
        <mxCell id="wQE8poqMORz0fsExs2S8-59" value="" style="endArrow=none;html=1;rounded=0;exitX=1;exitY=1;exitDx=0;exitDy=0;fillColor=light-dark(#FFD1DC,var(--ge-dark-color, #121212));" parent="1" source="wQE8poqMORz0fsExs2S8-45" target="wQE8poqMORz0fsExs2S8-53" edge="1">
          <mxGeometry relative="1" as="geometry">
            <mxPoint x="380" y="960" as="sourcePoint" />
            <mxPoint x="540" y="960" as="targetPoint" />
          </mxGeometry>
        </mxCell>
        <mxCell id="wQE8poqMORz0fsExs2S8-60" value="" style="endArrow=none;html=1;rounded=0;entryX=0;entryY=1;entryDx=0;entryDy=0;fillColor=light-dark(#FFD1DC,var(--ge-dark-color, #121212));" parent="1" source="wQE8poqMORz0fsExs2S8-47" target="wQE8poqMORz0fsExs2S8-45" edge="1">
          <mxGeometry relative="1" as="geometry">
            <mxPoint x="380" y="960" as="sourcePoint" />
            <mxPoint x="540" y="960" as="targetPoint" />
          </mxGeometry>
        </mxCell>
        <mxCell id="wQE8poqMORz0fsExs2S8-61" value="Submissions" style="whiteSpace=wrap;html=1;align=center;fillColor=light-dark(#C1E1C1,var(--ge-dark-color, #121212));" parent="1" vertex="1">
          <mxGeometry x="430" y="620" width="100" height="40" as="geometry" />
        </mxCell>
        <mxCell id="wQE8poqMORz0fsExs2S8-62" value="submission_id" style="ellipse;whiteSpace=wrap;html=1;align=center;fillColor=light-dark(#C1E1C1,var(--ge-dark-color, #121212));fontStyle=4" parent="1" vertex="1">
          <mxGeometry x="430" y="560" width="100" height="40" as="geometry" />
        </mxCell>
        <mxCell id="wQE8poqMORz0fsExs2S8-63" value="submitted by" style="ellipse;whiteSpace=wrap;html=1;align=center;fillColor=light-dark(#87CEEB,var(--ge-dark-color, #121212));" parent="1" vertex="1">
          <mxGeometry x="560" y="620" width="100" height="40" as="geometry" />
        </mxCell>
        <mxCell id="wQE8poqMORz0fsExs2S8-64" value="submitted_at" style="ellipse;whiteSpace=wrap;html=1;align=center;fillColor=light-dark(#C1E1C1,var(--ge-dark-color, #121212));" parent="1" vertex="1">
          <mxGeometry x="300" y="620" width="100" height="40" as="geometry" />
        </mxCell>
        <mxCell id="wQE8poqMORz0fsExs2S8-65" value="approved" style="ellipse;whiteSpace=wrap;html=1;align=center;fillColor=light-dark(#C1E1C1,var(--ge-dark-color, #121212));" parent="1" vertex="1">
          <mxGeometry x="430" y="680" width="100" height="40" as="geometry" />
        </mxCell>
        <mxCell id="wQE8poqMORz0fsExs2S8-66" value="contract_id" style="ellipse;whiteSpace=wrap;html=1;align=center;fillColor=light-dark(#FFDAB9,var(--ge-dark-color, #121212));" parent="1" vertex="1">
          <mxGeometry x="300" y="680" width="100" height="40" as="geometry" />
        </mxCell>
        <mxCell id="wQE8poqMORz0fsExs2S8-67" value="description" style="ellipse;whiteSpace=wrap;html=1;align=center;fillColor=light-dark(#C1E1C1,var(--ge-dark-color, #121212));" parent="1" vertex="1">
          <mxGeometry x="560" y="680" width="100" height="40" as="geometry" />
        </mxCell>
        <mxCell id="wQE8poqMORz0fsExs2S8-68" value="" style="endArrow=none;html=1;rounded=0;fillColor=light-dark(#C1E1C1,var(--ge-dark-color, #121212));" parent="1" source="wQE8poqMORz0fsExs2S8-64" target="wQE8poqMORz0fsExs2S8-61" edge="1">
          <mxGeometry relative="1" as="geometry">
            <mxPoint x="370" y="680" as="sourcePoint" />
            <mxPoint x="530" y="680" as="targetPoint" />
          </mxGeometry>
        </mxCell>
        <mxCell id="wQE8poqMORz0fsExs2S8-69" value="" style="endArrow=none;html=1;rounded=0;fillColor=light-dark(#C1E1C1,var(--ge-dark-color, #121212));" parent="1" source="wQE8poqMORz0fsExs2S8-63" target="wQE8poqMORz0fsExs2S8-61" edge="1">
          <mxGeometry relative="1" as="geometry">
            <mxPoint x="370" y="680" as="sourcePoint" />
            <mxPoint x="530" y="680" as="targetPoint" />
          </mxGeometry>
        </mxCell>
        <mxCell id="wQE8poqMORz0fsExs2S8-70" value="" style="endArrow=none;html=1;rounded=0;fillColor=light-dark(#C1E1C1,var(--ge-dark-color, #121212));" parent="1" source="wQE8poqMORz0fsExs2S8-62" target="wQE8poqMORz0fsExs2S8-61" edge="1">
          <mxGeometry relative="1" as="geometry">
            <mxPoint x="370" y="680" as="sourcePoint" />
            <mxPoint x="530" y="680" as="targetPoint" />
          </mxGeometry>
        </mxCell>
        <mxCell id="wQE8poqMORz0fsExs2S8-71" value="" style="endArrow=none;html=1;rounded=0;entryX=0;entryY=1;entryDx=0;entryDy=0;fillColor=light-dark(#C1E1C1,var(--ge-dark-color, #121212));" parent="1" source="wQE8poqMORz0fsExs2S8-66" target="wQE8poqMORz0fsExs2S8-61" edge="1">
          <mxGeometry relative="1" as="geometry">
            <mxPoint x="370" y="680" as="sourcePoint" />
            <mxPoint x="530" y="680" as="targetPoint" />
          </mxGeometry>
        </mxCell>
        <mxCell id="wQE8poqMORz0fsExs2S8-72" value="" style="endArrow=none;html=1;rounded=0;fillColor=light-dark(#C1E1C1,var(--ge-dark-color, #121212));" parent="1" source="wQE8poqMORz0fsExs2S8-65" target="wQE8poqMORz0fsExs2S8-61" edge="1">
          <mxGeometry relative="1" as="geometry">
            <mxPoint x="370" y="680" as="sourcePoint" />
            <mxPoint x="530" y="680" as="targetPoint" />
          </mxGeometry>
        </mxCell>
        <mxCell id="wQE8poqMORz0fsExs2S8-73" value="" style="endArrow=none;html=1;rounded=0;entryX=1;entryY=1;entryDx=0;entryDy=0;fillColor=light-dark(#C1E1C1,var(--ge-dark-color, #121212));" parent="1" source="wQE8poqMORz0fsExs2S8-67" target="wQE8poqMORz0fsExs2S8-61" edge="1">
          <mxGeometry relative="1" as="geometry">
            <mxPoint x="370" y="680" as="sourcePoint" />
            <mxPoint x="530" y="680" as="targetPoint" />
          </mxGeometry>
        </mxCell>
        <mxCell id="wQE8poqMORz0fsExs2S8-74" value="Endorsements" style="whiteSpace=wrap;html=1;align=center;fillColor=light-dark(#B3CDE0,var(--ge-dark-color, #121212));" parent="1" vertex="1">
          <mxGeometry x="-530" y="-140" width="100" height="40" as="geometry" />
        </mxCell>
        <mxCell id="wQE8poqMORz0fsExs2S8-75" value="endorsement_id" style="ellipse;whiteSpace=wrap;html=1;align=center;fillColor=light-dark(#B3CDE0,var(--ge-dark-color, #121212));fontStyle=4" parent="1" vertex="1">
          <mxGeometry x="-530" y="-200" width="100" height="40" as="geometry" />
        </mxCell>
        <mxCell id="wQE8poqMORz0fsExs2S8-76" value="freelancer_id" style="ellipse;whiteSpace=wrap;html=1;align=center;fillColor=light-dark(#87CEEB,var(--ge-dark-color, #121212));" parent="1" vertex="1">
          <mxGeometry x="-400" y="-140" width="100" height="40" as="geometry" />
        </mxCell>
        <mxCell id="wQE8poqMORz0fsExs2S8-77" value="client_id" style="ellipse;whiteSpace=wrap;html=1;align=center;fillColor=light-dark(#87CEEB,var(--ge-dark-color, #121212));" parent="1" vertex="1">
          <mxGeometry x="-660" y="-140" width="100" height="40" as="geometry" />
        </mxCell>
        <mxCell id="wQE8poqMORz0fsExs2S8-78" value="endorsement_text" style="ellipse;whiteSpace=wrap;html=1;align=center;fillColor=light-dark(#B3CDE0,var(--ge-dark-color, #121212));" parent="1" vertex="1">
          <mxGeometry x="-530" y="-80" width="100" height="40" as="geometry" />
        </mxCell>
        <mxCell id="wQE8poqMORz0fsExs2S8-79" value="" style="endArrow=none;html=1;rounded=0;fillColor=light-dark(#B3CDE0,var(--ge-dark-color, #121212));" parent="1" source="wQE8poqMORz0fsExs2S8-74" target="wQE8poqMORz0fsExs2S8-78" edge="1">
          <mxGeometry relative="1" as="geometry">
            <mxPoint x="-590" y="-30" as="sourcePoint" />
            <mxPoint x="-430" y="-30" as="targetPoint" />
          </mxGeometry>
        </mxCell>
        <mxCell id="wQE8poqMORz0fsExs2S8-80" value="" style="endArrow=none;html=1;rounded=0;fillColor=light-dark(#B3CDE0,var(--ge-dark-color, #121212));" parent="1" source="wQE8poqMORz0fsExs2S8-77" target="wQE8poqMORz0fsExs2S8-74" edge="1">
          <mxGeometry relative="1" as="geometry">
            <mxPoint x="-590" y="-30" as="sourcePoint" />
            <mxPoint x="-430" y="-30" as="targetPoint" />
          </mxGeometry>
        </mxCell>
        <mxCell id="wQE8poqMORz0fsExs2S8-81" value="" style="endArrow=none;html=1;rounded=0;fillColor=light-dark(#B3CDE0,var(--ge-dark-color, #121212));" parent="1" source="wQE8poqMORz0fsExs2S8-75" target="wQE8poqMORz0fsExs2S8-74" edge="1">
          <mxGeometry relative="1" as="geometry">
            <mxPoint x="-590" y="-30" as="sourcePoint" />
            <mxPoint x="-430" y="-30" as="targetPoint" />
          </mxGeometry>
        </mxCell>
        <mxCell id="wQE8poqMORz0fsExs2S8-82" value="" style="endArrow=none;html=1;rounded=0;fillColor=light-dark(#B3CDE0,var(--ge-dark-color, #121212));" parent="1" source="wQE8poqMORz0fsExs2S8-74" target="wQE8poqMORz0fsExs2S8-76" edge="1">
          <mxGeometry relative="1" as="geometry">
            <mxPoint x="-590" y="-30" as="sourcePoint" />
            <mxPoint x="-430" y="-30" as="targetPoint" />
          </mxGeometry>
        </mxCell>
        <mxCell id="wQE8poqMORz0fsExs2S8-83" value="Withdrawals" style="whiteSpace=wrap;html=1;align=center;fillColor=light-dark(#FFE5B4,var(--ge-dark-color, #121212));" parent="1" vertex="1">
          <mxGeometry x="-50" y="1140" width="100" height="40" as="geometry" />
        </mxCell>
        <mxCell id="wQE8poqMORz0fsExs2S8-84" value="withdrawal_id" style="ellipse;whiteSpace=wrap;html=1;align=center;fillColor=light-dark(#FFE5B4,var(--ge-dark-color, #121212));fontStyle=4" parent="1" vertex="1">
          <mxGeometry x="-50" y="1080" width="100" height="40" as="geometry" />
        </mxCell>
        <mxCell id="wQE8poqMORz0fsExs2S8-85" value="contract_id" style="ellipse;whiteSpace=wrap;html=1;align=center;fillColor=light-dark(#FFDAB9,var(--ge-dark-color, #121212));" parent="1" vertex="1">
          <mxGeometry x="-180" y="1140" width="100" height="40" as="geometry" />
        </mxCell>
        <mxCell id="wQE8poqMORz0fsExs2S8-86" value="requested_by" style="ellipse;whiteSpace=wrap;html=1;align=center;fillColor=light-dark(#87CEEB,var(--ge-dark-color, #121212));" parent="1" vertex="1">
          <mxGeometry x="80" y="1080" width="100" height="40" as="geometry" />
        </mxCell>
        <mxCell id="wQE8poqMORz0fsExs2S8-88" value="approved_by" style="ellipse;whiteSpace=wrap;html=1;align=center;fillColor=light-dark(#87CEEB,var(--ge-dark-color, #121212));" parent="1" vertex="1">
          <mxGeometry x="80" y="1140" width="100" height="40" as="geometry" />
        </mxCell>
        <mxCell id="wQE8poqMORz0fsExs2S8-89" value="reason" style="ellipse;whiteSpace=wrap;html=1;align=center;fillColor=light-dark(#FFE5B4,var(--ge-dark-color, #121212));" parent="1" vertex="1">
          <mxGeometry x="80" y="1200" width="100" height="40" as="geometry" />
        </mxCell>
        <mxCell id="wQE8poqMORz0fsExs2S8-90" value="status" style="ellipse;whiteSpace=wrap;html=1;align=center;fillColor=light-dark(#FFE5B4,var(--ge-dark-color, #121212));" parent="1" vertex="1">
          <mxGeometry x="-180" y="1080" width="100" height="40" as="geometry" />
        </mxCell>
        <mxCell id="wQE8poqMORz0fsExs2S8-91" value="withdrawn_at" style="ellipse;whiteSpace=wrap;html=1;align=center;fillColor=light-dark(#FFE5B4,var(--ge-dark-color, #121212));" parent="1" vertex="1">
          <mxGeometry x="-180" y="1200" width="100" height="40" as="geometry" />
        </mxCell>
        <mxCell id="wQE8poqMORz0fsExs2S8-92" value="" style="endArrow=none;html=1;rounded=0;fillColor=light-dark(#FFE5B4,var(--ge-dark-color, #121212));" parent="1" source="wQE8poqMORz0fsExs2S8-85" target="wQE8poqMORz0fsExs2S8-83" edge="1">
          <mxGeometry relative="1" as="geometry">
            <mxPoint x="-100" y="1170" as="sourcePoint" />
            <mxPoint x="60" y="1170" as="targetPoint" />
          </mxGeometry>
        </mxCell>
        <mxCell id="wQE8poqMORz0fsExs2S8-93" value="" style="endArrow=none;html=1;rounded=0;fillColor=light-dark(#FFE5B4,var(--ge-dark-color, #121212));" parent="1" source="wQE8poqMORz0fsExs2S8-84" target="wQE8poqMORz0fsExs2S8-83" edge="1">
          <mxGeometry relative="1" as="geometry">
            <mxPoint x="-60" y="1170" as="sourcePoint" />
            <mxPoint x="100" y="1170" as="targetPoint" />
          </mxGeometry>
        </mxCell>
        <mxCell id="wQE8poqMORz0fsExs2S8-94" value="" style="endArrow=none;html=1;rounded=0;fillColor=light-dark(#FFE5B4,var(--ge-dark-color, #121212));" parent="1" source="wQE8poqMORz0fsExs2S8-88" target="wQE8poqMORz0fsExs2S8-83" edge="1">
          <mxGeometry relative="1" as="geometry">
            <mxPoint x="-60" y="1170" as="sourcePoint" />
            <mxPoint x="100" y="1170" as="targetPoint" />
          </mxGeometry>
        </mxCell>
        <mxCell id="wQE8poqMORz0fsExs2S8-95" value="" style="endArrow=none;html=1;rounded=0;exitX=1;exitY=1;exitDx=0;exitDy=0;fillColor=light-dark(#FFE5B4,var(--ge-dark-color, #121212));" parent="1" source="wQE8poqMORz0fsExs2S8-83" target="wQE8poqMORz0fsExs2S8-89" edge="1">
          <mxGeometry relative="1" as="geometry">
            <mxPoint x="-60" y="1170" as="sourcePoint" />
            <mxPoint x="100" y="1170" as="targetPoint" />
          </mxGeometry>
        </mxCell>
        <mxCell id="wQE8poqMORz0fsExs2S8-96" value="" style="endArrow=none;html=1;rounded=0;entryX=0;entryY=1;entryDx=0;entryDy=0;fillColor=light-dark(#FFE5B4,var(--ge-dark-color, #121212));" parent="1" source="wQE8poqMORz0fsExs2S8-91" target="wQE8poqMORz0fsExs2S8-83" edge="1">
          <mxGeometry relative="1" as="geometry">
            <mxPoint x="-60" y="1170" as="sourcePoint" />
            <mxPoint x="100" y="1170" as="targetPoint" />
          </mxGeometry>
        </mxCell>
        <mxCell id="wQE8poqMORz0fsExs2S8-97" value="" style="endArrow=none;html=1;rounded=0;entryX=1;entryY=0;entryDx=0;entryDy=0;fillColor=light-dark(#FFE5B4,var(--ge-dark-color, #121212));" parent="1" source="wQE8poqMORz0fsExs2S8-86" target="wQE8poqMORz0fsExs2S8-83" edge="1">
          <mxGeometry relative="1" as="geometry">
            <mxPoint x="-60" y="1170" as="sourcePoint" />
            <mxPoint x="100" y="1170" as="targetPoint" />
          </mxGeometry>
        </mxCell>
        <mxCell id="wQE8poqMORz0fsExs2S8-98" value="" style="endArrow=none;html=1;rounded=0;exitX=0;exitY=0;exitDx=0;exitDy=0;fillColor=light-dark(#FFE5B4,var(--ge-dark-color, #121212));" parent="1" source="wQE8poqMORz0fsExs2S8-83" target="wQE8poqMORz0fsExs2S8-90" edge="1">
          <mxGeometry relative="1" as="geometry">
            <mxPoint x="-60" y="1170" as="sourcePoint" />
            <mxPoint x="100" y="1170" as="targetPoint" />
          </mxGeometry>
        </mxCell>
        <mxCell id="wQE8poqMORz0fsExs2S8-99" value="" style="group" parent="1" vertex="1" connectable="0">
          <mxGeometry x="430" y="460" width="100" height="95" as="geometry" />
        </mxCell>
        <mxCell id="wQE8poqMORz0fsExs2S8-24" value="" style="group" parent="wQE8poqMORz0fsExs2S8-99" vertex="1" connectable="0">
          <mxGeometry y="30" width="100" height="40" as="geometry" />
        </mxCell>
        <mxCell id="t3rTMX0xg2tJ1wJNU89R-162" value="Assigned to" style="shape=rhombus;perimeter=rhombusPerimeter;whiteSpace=wrap;html=1;align=center;fillColor=light-dark(#FFFFF0,var(--ge-dark-color, #121212));" parent="wQE8poqMORz0fsExs2S8-24" vertex="1">
          <mxGeometry x="6.666666666666666" width="80" height="40" as="geometry" />
        </mxCell>
        <mxCell id="lUyRrB7iP-wXptOiPe6o-42" value="N" style="text;html=1;align=center;verticalAlign=middle;resizable=0;points=[];autosize=1;strokeColor=none;fillColor=none;" parent="wQE8poqMORz0fsExs2S8-99" vertex="1">
          <mxGeometry x="31.670000000000016" width="30" height="30" as="geometry" />
        </mxCell>
        <mxCell id="lUyRrB7iP-wXptOiPe6o-41" value="1" style="text;html=1;align=center;verticalAlign=middle;resizable=0;points=[];autosize=1;strokeColor=none;fillColor=none;" parent="wQE8poqMORz0fsExs2S8-99" vertex="1">
          <mxGeometry x="31.670000000000016" y="65" width="30" height="30" as="geometry" />
        </mxCell>
        <mxCell id="wQE8poqMORz0fsExs2S8-105" value="Submits" style="shape=rhombus;perimeter=rhombusPerimeter;whiteSpace=wrap;html=1;align=center;fillColor=light-dark(#FFFFF0,var(--ge-dark-color, #121212));" parent="1" vertex="1">
          <mxGeometry x="720" y="620" width="80" height="40" as="geometry" />
        </mxCell>
        <mxCell id="wQE8poqMORz0fsExs2S8-106" value="" style="endArrow=none;html=1;rounded=0;entryX=0;entryY=0.5;entryDx=0;entryDy=0;" parent="1" source="wQE8poqMORz0fsExs2S8-63" target="wQE8poqMORz0fsExs2S8-105" edge="1">
          <mxGeometry relative="1" as="geometry">
            <mxPoint x="570" y="590" as="sourcePoint" />
            <mxPoint x="730" y="590" as="targetPoint" />
          </mxGeometry>
        </mxCell>
        <mxCell id="wQE8poqMORz0fsExs2S8-107" value="1" style="text;html=1;align=center;verticalAlign=middle;resizable=0;points=[];autosize=1;strokeColor=none;fillColor=none;" parent="1" vertex="1">
          <mxGeometry x="785" y="611" width="30" height="30" as="geometry" />
        </mxCell>
        <mxCell id="wQE8poqMORz0fsExs2S8-108" value="N" style="text;html=1;align=center;verticalAlign=middle;resizable=0;points=[];autosize=1;strokeColor=none;fillColor=none;" parent="1" vertex="1">
          <mxGeometry x="705" y="611" width="30" height="30" as="geometry" />
        </mxCell>
        <mxCell id="wQE8poqMORz0fsExs2S8-109" value="for" style="shape=rhombus;perimeter=rhombusPerimeter;whiteSpace=wrap;html=1;align=center;fillColor=light-dark(#FFFFF0,var(--ge-dark-color, #121212));" parent="1" vertex="1">
          <mxGeometry x="-40" y="740" width="80" height="40" as="geometry" />
        </mxCell>
        <mxCell id="wQE8poqMORz0fsExs2S8-110" value="" style="endArrow=none;html=1;rounded=0;" parent="1" source="wQE8poqMORz0fsExs2S8-114" edge="1">
          <mxGeometry relative="1" as="geometry">
            <mxPoint x="-30" y="710" as="sourcePoint" />
            <mxPoint x="-130" y="780" as="targetPoint" />
          </mxGeometry>
        </mxCell>
        <mxCell id="wQE8poqMORz0fsExs2S8-111" value="" style="endArrow=none;html=1;rounded=0;exitX=0;exitY=0.5;exitDx=0;exitDy=0;" parent="1" source="wQE8poqMORz0fsExs2S8-109" target="t3rTMX0xg2tJ1wJNU89R-160" edge="1">
          <mxGeometry relative="1" as="geometry">
            <mxPoint x="-30" y="710" as="sourcePoint" />
            <mxPoint x="-130" y="760" as="targetPoint" />
          </mxGeometry>
        </mxCell>
        <mxCell id="wQE8poqMORz0fsExs2S8-112" value="" style="endArrow=none;html=1;rounded=0;" parent="1" target="wQE8poqMORz0fsExs2S8-66" edge="1">
          <mxGeometry relative="1" as="geometry">
            <mxPoint x="350" y="760" as="sourcePoint" />
            <mxPoint x="200" y="780" as="targetPoint" />
          </mxGeometry>
        </mxCell>
        <mxCell id="wQE8poqMORz0fsExs2S8-113" value="" style="endArrow=none;html=1;rounded=0;exitX=1;exitY=0.5;exitDx=0;exitDy=0;" parent="1" source="wQE8poqMORz0fsExs2S8-109" edge="1">
          <mxGeometry relative="1" as="geometry">
            <mxPoint x="80" y="710" as="sourcePoint" />
            <mxPoint x="350" y="760" as="targetPoint" />
          </mxGeometry>
        </mxCell>
        <mxCell id="wQE8poqMORz0fsExs2S8-115" value="" style="endArrow=none;html=1;rounded=0;exitX=0.5;exitY=1;exitDx=0;exitDy=0;" parent="1" source="wQE8poqMORz0fsExs2S8-114" target="wQE8poqMORz0fsExs2S8-27" edge="1">
          <mxGeometry relative="1" as="geometry">
            <mxPoint x="-70" y="780" as="sourcePoint" />
            <mxPoint x="90" y="780" as="targetPoint" />
          </mxGeometry>
        </mxCell>
        <mxCell id="wQE8poqMORz0fsExs2S8-117" value="for" style="shape=rhombus;perimeter=rhombusPerimeter;whiteSpace=wrap;html=1;align=center;fillColor=light-dark(#FFFFF0,var(--ge-dark-color, #121212));" parent="1" vertex="1">
          <mxGeometry x="-390" y="759" width="80" height="40" as="geometry" />
        </mxCell>
        <mxCell id="wQE8poqMORz0fsExs2S8-118" value="" style="endArrow=none;html=1;rounded=0;" parent="1" edge="1">
          <mxGeometry relative="1" as="geometry">
            <mxPoint x="840" y="120" as="sourcePoint" />
            <mxPoint x="840" y="640" as="targetPoint" />
          </mxGeometry>
        </mxCell>
        <mxCell id="wQE8poqMORz0fsExs2S8-120" value="" style="endArrow=none;html=1;rounded=0;" parent="1" source="t3rTMX0xg2tJ1wJNU89R-160" target="wQE8poqMORz0fsExs2S8-114" edge="1">
          <mxGeometry relative="1" as="geometry">
            <mxPoint x="-130" y="720" as="sourcePoint" />
            <mxPoint x="-130" y="780" as="targetPoint" />
          </mxGeometry>
        </mxCell>
        <mxCell id="wQE8poqMORz0fsExs2S8-114" value="modified as" style="shape=rhombus;perimeter=rhombusPerimeter;whiteSpace=wrap;html=1;align=center;fillColor=light-dark(#FFFFF0,var(--ge-dark-color, #121212));" parent="1" vertex="1">
          <mxGeometry x="-170" y="760" width="80" height="40" as="geometry" />
        </mxCell>
        <mxCell id="wQE8poqMORz0fsExs2S8-121" value="N" style="text;html=1;align=center;verticalAlign=middle;resizable=0;points=[];autosize=1;strokeColor=none;fillColor=none;" parent="1" vertex="1">
          <mxGeometry x="23" y="730" width="30" height="30" as="geometry" />
        </mxCell>
        <mxCell id="wQE8poqMORz0fsExs2S8-122" value="1" style="text;html=1;align=center;verticalAlign=middle;resizable=0;points=[];autosize=1;strokeColor=none;fillColor=none;" parent="1" vertex="1">
          <mxGeometry x="-57" y="728" width="30" height="30" as="geometry" />
        </mxCell>
        <mxCell id="wQE8poqMORz0fsExs2S8-123" value="1" style="text;html=1;align=center;verticalAlign=middle;resizable=0;points=[];autosize=1;strokeColor=none;fillColor=none;" parent="1" vertex="1">
          <mxGeometry x="-155" y="740" width="30" height="30" as="geometry" />
        </mxCell>
        <mxCell id="wQE8poqMORz0fsExs2S8-124" value="N" style="text;html=1;align=center;verticalAlign=middle;resizable=0;points=[];autosize=1;strokeColor=none;fillColor=none;" parent="1" vertex="1">
          <mxGeometry x="-155" y="790" width="30" height="30" as="geometry" />
        </mxCell>
        <mxCell id="wQE8poqMORz0fsExs2S8-125" value="" style="endArrow=none;html=1;rounded=0;" parent="1" edge="1">
          <mxGeometry relative="1" as="geometry">
            <mxPoint x="240" y="60" as="sourcePoint" />
            <mxPoint x="240" y="-240" as="targetPoint" />
          </mxGeometry>
        </mxCell>
        <mxCell id="wQE8poqMORz0fsExs2S8-126" value="" style="endArrow=none;html=1;rounded=0;" parent="1" edge="1">
          <mxGeometry relative="1" as="geometry">
            <mxPoint x="240" y="-240" as="sourcePoint" />
            <mxPoint x="960" y="-240" as="targetPoint" />
          </mxGeometry>
        </mxCell>
        <mxCell id="wQE8poqMORz0fsExs2S8-127" value="" style="endArrow=none;html=1;rounded=0;" parent="1" edge="1">
          <mxGeometry relative="1" as="geometry">
            <mxPoint x="880" y="920" as="sourcePoint" />
            <mxPoint x="880" y="-240" as="targetPoint" />
          </mxGeometry>
        </mxCell>
        <mxCell id="wQE8poqMORz0fsExs2S8-128" value="raises" style="shape=rhombus;perimeter=rhombusPerimeter;whiteSpace=wrap;html=1;align=center;fillColor=light-dark(#FFFFF0,var(--ge-dark-color, #121212));" parent="1" vertex="1">
          <mxGeometry x="760" y="900" width="80" height="40" as="geometry" />
        </mxCell>
        <mxCell id="wQE8poqMORz0fsExs2S8-129" value="" style="endArrow=none;html=1;rounded=0;exitX=1;exitY=0.5;exitDx=0;exitDy=0;" parent="1" source="wQE8poqMORz0fsExs2S8-128" edge="1">
          <mxGeometry relative="1" as="geometry">
            <mxPoint x="790" y="920" as="sourcePoint" />
            <mxPoint x="880" y="920" as="targetPoint" />
          </mxGeometry>
        </mxCell>
        <mxCell id="wQE8poqMORz0fsExs2S8-130" value="" style="endArrow=none;html=1;rounded=0;entryX=0;entryY=0.5;entryDx=0;entryDy=0;" parent="1" source="wQE8poqMORz0fsExs2S8-49" target="wQE8poqMORz0fsExs2S8-128" edge="1">
          <mxGeometry relative="1" as="geometry">
            <mxPoint x="670" y="920" as="sourcePoint" />
            <mxPoint x="830" y="920" as="targetPoint" />
          </mxGeometry>
        </mxCell>
        <mxCell id="wQE8poqMORz0fsExs2S8-131" value="" style="endArrow=none;html=1;rounded=0;exitX=1;exitY=0.5;exitDx=0;exitDy=0;" parent="1" source="wQE8poqMORz0fsExs2S8-105" edge="1">
          <mxGeometry relative="1" as="geometry">
            <mxPoint x="670" y="640" as="sourcePoint" />
            <mxPoint x="840" y="640" as="targetPoint" />
          </mxGeometry>
        </mxCell>
        <mxCell id="wQE8poqMORz0fsExs2S8-132" value="" style="endArrow=none;html=1;rounded=0;" parent="1" edge="1">
          <mxGeometry relative="1" as="geometry">
            <mxPoint x="920" y="1040" as="sourcePoint" />
            <mxPoint x="920" y="-240" as="targetPoint" />
          </mxGeometry>
        </mxCell>
        <mxCell id="wQE8poqMORz0fsExs2S8-133" value="modifies" style="shape=rhombus;perimeter=rhombusPerimeter;whiteSpace=wrap;html=1;align=center;fillColor=light-dark(#FFFFF0,var(--ge-dark-color, #121212));" parent="1" vertex="1">
          <mxGeometry x="760" y="1020" width="80" height="40" as="geometry" />
        </mxCell>
        <mxCell id="wQE8poqMORz0fsExs2S8-134" value="" style="endArrow=none;html=1;rounded=0;exitX=1;exitY=0.5;exitDx=0;exitDy=0;" parent="1" source="wQE8poqMORz0fsExs2S8-133" edge="1">
          <mxGeometry relative="1" as="geometry">
            <mxPoint x="710" y="1050" as="sourcePoint" />
            <mxPoint x="920" y="1040" as="targetPoint" />
          </mxGeometry>
        </mxCell>
        <mxCell id="wQE8poqMORz0fsExs2S8-135" value="" style="endArrow=none;html=1;rounded=0;entryX=0;entryY=0.5;entryDx=0;entryDy=0;" parent="1" target="wQE8poqMORz0fsExs2S8-133" edge="1">
          <mxGeometry relative="1" as="geometry">
            <mxPoint x="-70" y="1040" as="sourcePoint" />
            <mxPoint x="590" y="1060" as="targetPoint" />
          </mxGeometry>
        </mxCell>
        <mxCell id="wQE8poqMORz0fsExs2S8-136" value="" style="endArrow=none;html=1;rounded=0;" parent="1" source="wQE8poqMORz0fsExs2S8-28" edge="1">
          <mxGeometry relative="1" as="geometry">
            <mxPoint x="160" y="1060" as="sourcePoint" />
            <mxPoint x="-70" y="1040" as="targetPoint" />
          </mxGeometry>
        </mxCell>
        <mxCell id="wQE8poqMORz0fsExs2S8-137" value="" style="endArrow=none;html=1;rounded=0;" parent="1" edge="1">
          <mxGeometry relative="1" as="geometry">
            <mxPoint x="960" y="1160" as="sourcePoint" />
            <mxPoint x="960" y="-240" as="targetPoint" />
          </mxGeometry>
        </mxCell>
        <mxCell id="wQE8poqMORz0fsExs2S8-138" value="" style="endArrow=none;html=1;rounded=0;entryX=0;entryY=0.5;entryDx=0;entryDy=0;" parent="1" source="wQE8poqMORz0fsExs2S8-88" target="wQE8poqMORz0fsExs2S8-139" edge="1">
          <mxGeometry relative="1" as="geometry">
            <mxPoint x="310" y="1070" as="sourcePoint" />
            <mxPoint x="760" y="1160" as="targetPoint" />
          </mxGeometry>
        </mxCell>
        <mxCell id="wQE8poqMORz0fsExs2S8-139" value="withdraws/accepts" style="shape=rhombus;perimeter=rhombusPerimeter;whiteSpace=wrap;html=1;align=center;fontSize=9;fillColor=light-dark(#FFFFF0,var(--ge-dark-color, #121212));" parent="1" vertex="1">
          <mxGeometry x="760" y="1140" width="80" height="40" as="geometry" />
        </mxCell>
        <mxCell id="wQE8poqMORz0fsExs2S8-140" value="" style="endArrow=none;html=1;rounded=0;exitX=1;exitY=0.5;exitDx=0;exitDy=0;" parent="1" source="wQE8poqMORz0fsExs2S8-139" edge="1">
          <mxGeometry relative="1" as="geometry">
            <mxPoint x="680" y="1090" as="sourcePoint" />
            <mxPoint x="960" y="1160" as="targetPoint" />
          </mxGeometry>
        </mxCell>
        <mxCell id="wQE8poqMORz0fsExs2S8-141" value="" style="endArrow=none;html=1;rounded=0;" parent="1" source="wQE8poqMORz0fsExs2S8-86" edge="1">
          <mxGeometry relative="1" as="geometry">
            <mxPoint x="220" y="1110" as="sourcePoint" />
            <mxPoint x="320" y="1100" as="targetPoint" />
          </mxGeometry>
        </mxCell>
        <mxCell id="wQE8poqMORz0fsExs2S8-142" value="" style="endArrow=none;html=1;rounded=0;" parent="1" edge="1">
          <mxGeometry relative="1" as="geometry">
            <mxPoint x="320" y="1160" as="sourcePoint" />
            <mxPoint x="320" y="1100" as="targetPoint" />
          </mxGeometry>
        </mxCell>
        <mxCell id="wQE8poqMORz0fsExs2S8-144" value="" style="endArrow=none;html=1;rounded=0;entryX=0.5;entryY=0;entryDx=0;entryDy=0;" parent="1" target="wQE8poqMORz0fsExs2S8-117" edge="1">
          <mxGeometry relative="1" as="geometry">
            <mxPoint x="-350" y="700" as="sourcePoint" />
            <mxPoint x="-190" y="820" as="targetPoint" />
          </mxGeometry>
        </mxCell>
        <mxCell id="wQE8poqMORz0fsExs2S8-145" value="" style="endArrow=none;html=1;rounded=0;exitX=0.5;exitY=1;exitDx=0;exitDy=0;" parent="1" source="wQE8poqMORz0fsExs2S8-117" target="wQE8poqMORz0fsExs2S8-6" edge="1">
          <mxGeometry relative="1" as="geometry">
            <mxPoint x="-350" y="820" as="sourcePoint" />
            <mxPoint x="-190" y="820" as="targetPoint" />
          </mxGeometry>
        </mxCell>
        <mxCell id="wQE8poqMORz0fsExs2S8-146" value="1" style="text;html=1;align=center;verticalAlign=middle;resizable=0;points=[];autosize=1;strokeColor=none;fillColor=none;" parent="1" vertex="1">
          <mxGeometry x="825" y="888" width="30" height="30" as="geometry" />
        </mxCell>
        <mxCell id="wQE8poqMORz0fsExs2S8-147" value="N" style="text;html=1;align=center;verticalAlign=middle;resizable=0;points=[];autosize=1;strokeColor=none;fillColor=none;" parent="1" vertex="1">
          <mxGeometry x="745" y="888" width="30" height="30" as="geometry" />
        </mxCell>
        <mxCell id="wQE8poqMORz0fsExs2S8-148" value="1" style="text;html=1;align=center;verticalAlign=middle;resizable=0;points=[];autosize=1;strokeColor=none;fillColor=none;" parent="1" vertex="1">
          <mxGeometry x="825" y="1010" width="30" height="30" as="geometry" />
        </mxCell>
        <mxCell id="wQE8poqMORz0fsExs2S8-149" value="N" style="text;html=1;align=center;verticalAlign=middle;resizable=0;points=[];autosize=1;strokeColor=none;fillColor=none;" parent="1" vertex="1">
          <mxGeometry x="745" y="1010" width="30" height="30" as="geometry" />
        </mxCell>
        <mxCell id="wQE8poqMORz0fsExs2S8-150" value="1" style="text;html=1;align=center;verticalAlign=middle;resizable=0;points=[];autosize=1;strokeColor=none;fillColor=none;" parent="1" vertex="1">
          <mxGeometry x="823" y="1130" width="30" height="30" as="geometry" />
        </mxCell>
        <mxCell id="wQE8poqMORz0fsExs2S8-151" value="N" style="text;html=1;align=center;verticalAlign=middle;resizable=0;points=[];autosize=1;strokeColor=none;fillColor=none;" parent="1" vertex="1">
          <mxGeometry x="745" y="1130" width="30" height="30" as="geometry" />
        </mxCell>
        <mxCell id="wQE8poqMORz0fsExs2S8-152" value="1" style="text;html=1;align=center;verticalAlign=middle;resizable=0;points=[];autosize=1;strokeColor=none;fillColor=none;" parent="1" vertex="1">
          <mxGeometry x="-356" y="738" width="30" height="30" as="geometry" />
        </mxCell>
        <mxCell id="wQE8poqMORz0fsExs2S8-153" value="1" style="text;html=1;align=center;verticalAlign=middle;resizable=0;points=[];autosize=1;strokeColor=none;fillColor=none;" parent="1" vertex="1">
          <mxGeometry x="-356" y="790" width="30" height="30" as="geometry" />
        </mxCell>
        <mxCell id="wQE8poqMORz0fsExs2S8-154" value="" style="endArrow=none;html=1;rounded=0;entryX=0.5;entryY=0;entryDx=0;entryDy=0;" parent="1" target="wQE8poqMORz0fsExs2S8-156" edge="1">
          <mxGeometry relative="1" as="geometry">
            <mxPoint x="-270" y="700" as="sourcePoint" />
            <mxPoint x="-270" y="1160" as="targetPoint" />
          </mxGeometry>
        </mxCell>
        <mxCell id="wQE8poqMORz0fsExs2S8-155" value="" style="endArrow=none;html=1;rounded=0;" parent="1" source="wQE8poqMORz0fsExs2S8-156" target="wQE8poqMORz0fsExs2S8-85" edge="1">
          <mxGeometry relative="1" as="geometry">
            <mxPoint x="-270" y="1160" as="sourcePoint" />
            <mxPoint x="-30" y="980" as="targetPoint" />
          </mxGeometry>
        </mxCell>
        <mxCell id="wQE8poqMORz0fsExs2S8-157" value="" style="endArrow=none;html=1;rounded=0;" parent="1" target="wQE8poqMORz0fsExs2S8-156" edge="1">
          <mxGeometry relative="1" as="geometry">
            <mxPoint x="-270" y="1160" as="sourcePoint" />
            <mxPoint x="-180" y="1160" as="targetPoint" />
          </mxGeometry>
        </mxCell>
        <mxCell id="wQE8poqMORz0fsExs2S8-156" value="withdrawn" style="shape=rhombus;perimeter=rhombusPerimeter;whiteSpace=wrap;html=1;align=center;fillColor=light-dark(#FFFFF0,var(--ge-dark-color, #121212));" parent="1" vertex="1">
          <mxGeometry x="-310" y="1140" width="80" height="40" as="geometry" />
        </mxCell>
        <mxCell id="wQE8poqMORz0fsExs2S8-159" value="1" style="text;html=1;align=center;verticalAlign=middle;resizable=0;points=[];autosize=1;strokeColor=none;fillColor=none;" parent="1" vertex="1">
          <mxGeometry x="-250" y="1130" width="30" height="30" as="geometry" />
        </mxCell>
        <mxCell id="wQE8poqMORz0fsExs2S8-160" value="1" style="text;html=1;align=center;verticalAlign=middle;resizable=0;points=[];autosize=1;strokeColor=none;fillColor=none;" parent="1" vertex="1">
          <mxGeometry x="-295" y="1120" width="30" height="30" as="geometry" />
        </mxCell>
        <mxCell id="wQE8poqMORz0fsExs2S8-168" value="" style="endArrow=none;html=1;rounded=0;" parent="1" edge="1">
          <mxGeometry relative="1" as="geometry">
            <mxPoint x="-240" y="-260" as="sourcePoint" />
            <mxPoint x="-240" y="60" as="targetPoint" />
          </mxGeometry>
        </mxCell>
        <mxCell id="wQE8poqMORz0fsExs2S8-169" value="Is a" style="shape=rhombus;perimeter=rhombusPerimeter;whiteSpace=wrap;html=1;align=center;fillColor=light-dark(#FFFFF0,var(--ge-dark-color, #121212));" parent="1" vertex="1">
          <mxGeometry x="-390" y="-280" width="80" height="40" as="geometry" />
        </mxCell>
        <mxCell id="wQE8poqMORz0fsExs2S8-171" value="" style="endArrow=none;html=1;rounded=0;exitX=1;exitY=0.5;exitDx=0;exitDy=0;" parent="1" source="wQE8poqMORz0fsExs2S8-169" edge="1">
          <mxGeometry relative="1" as="geometry">
            <mxPoint x="-350" y="-210" as="sourcePoint" />
            <mxPoint x="-240" y="-260" as="targetPoint" />
          </mxGeometry>
        </mxCell>
        <mxCell id="wQE8poqMORz0fsExs2S8-172" value="" style="endArrow=none;html=1;rounded=0;" parent="1" source="wQE8poqMORz0fsExs2S8-77" edge="1">
          <mxGeometry relative="1" as="geometry">
            <mxPoint x="-540" y="-210" as="sourcePoint" />
            <mxPoint x="-610" y="-260" as="targetPoint" />
          </mxGeometry>
        </mxCell>
        <mxCell id="wQE8poqMORz0fsExs2S8-173" value="" style="endArrow=none;html=1;rounded=0;entryX=0;entryY=0.5;entryDx=0;entryDy=0;" parent="1" target="wQE8poqMORz0fsExs2S8-169" edge="1">
          <mxGeometry relative="1" as="geometry">
            <mxPoint x="-610" y="-260" as="sourcePoint" />
            <mxPoint x="-380" y="-210" as="targetPoint" />
          </mxGeometry>
        </mxCell>
        <mxCell id="wQE8poqMORz0fsExs2S8-174" value="" style="endArrow=none;html=1;rounded=0;entryX=0.5;entryY=1;entryDx=0;entryDy=0;" parent="1" source="wQE8poqMORz0fsExs2S8-76" target="wQE8poqMORz0fsExs2S8-169" edge="1">
          <mxGeometry relative="1" as="geometry">
            <mxPoint x="-440" y="-200" as="sourcePoint" />
            <mxPoint x="-280" y="-200" as="targetPoint" />
          </mxGeometry>
        </mxCell>
        <mxCell id="wQE8poqMORz0fsExs2S8-175" value="1" style="text;html=1;align=center;verticalAlign=middle;resizable=0;points=[];autosize=1;strokeColor=none;fillColor=none;" parent="1" vertex="1">
          <mxGeometry x="-325" y="-290" width="30" height="30" as="geometry" />
        </mxCell>
        <mxCell id="wQE8poqMORz0fsExs2S8-176" value="1" style="text;html=1;align=center;verticalAlign=middle;resizable=0;points=[];autosize=1;strokeColor=none;fillColor=none;" parent="1" vertex="1">
          <mxGeometry x="-410" y="-290" width="30" height="30" as="geometry" />
        </mxCell>
        <mxCell id="nFC1cyk73MFFI_67Lj5E-2" value="submitted_file" style="ellipse;whiteSpace=wrap;html=1;align=center;fillColor=light-dark(#C1E1C1,var(--ge-dark-color, #121212));" parent="1" vertex="1">
          <mxGeometry x="560" y="560" width="100" height="40" as="geometry" />
        </mxCell>
        <mxCell id="nFC1cyk73MFFI_67Lj5E-3" value="" style="endArrow=none;html=1;rounded=0;exitX=1;exitY=0;exitDx=0;exitDy=0;" parent="1" source="wQE8poqMORz0fsExs2S8-61" target="nFC1cyk73MFFI_67Lj5E-2" edge="1">
          <mxGeometry relative="1" as="geometry">
            <mxPoint x="470" y="670" as="sourcePoint" />
            <mxPoint x="630" y="670" as="targetPoint" />
          </mxGeometry>
        </mxCell>
      </root>
    </mxGraphModel>
  </diagram>
</mxfile>
